# Blender v2.69 (sub 0) OBJ File: 'Digits.blend'
# www.blender.org
mtllib Digit4.mtl
o Digit_Text
v 0.471000 0.312000 0.060000
v 0.471000 0.224000 0.060000
v 0.398000 0.224000 0.060000
v 0.398000 0.000000 0.060000
v 0.300000 0.000000 0.060000
v 0.300000 0.224000 0.060000
v 0.011000 0.224000 0.060000
v 0.011000 0.269000 0.060000
v 0.356000 0.691000 0.060000
v 0.398000 0.691000 0.060000
v 0.398000 0.312000 0.060000
v 0.300000 0.312000 0.060000
v 0.300000 0.506000 0.060000
v 0.298000 0.506000 0.060000
v 0.142000 0.312000 0.060000
v 0.471000 0.312000 -0.060000
v 0.471000 0.224000 -0.060000
v 0.398000 0.224000 -0.060000
v 0.398000 -0.000000 -0.060000
v 0.300000 -0.000000 -0.060000
v 0.300000 0.224000 -0.060000
v 0.011000 0.224000 -0.060000
v 0.011000 0.269000 -0.060000
v 0.356000 0.691000 -0.060000
v 0.398000 0.691000 -0.060000
v 0.398000 0.312000 -0.060000
v 0.300000 0.312000 -0.060000
v 0.300000 0.506000 -0.060000
v 0.298000 0.506000 -0.060000
v 0.142000 0.312000 -0.060000
v 0.471000 0.312000 -0.060000
v 0.491000 0.332000 -0.040000
v 0.471000 0.224000 -0.060000
v 0.491000 0.204000 -0.040000
v 0.398000 0.224000 -0.060000
v 0.418000 0.204000 -0.040000
v 0.398000 -0.000000 -0.060000
v 0.418000 -0.020000 -0.040000
v 0.300000 -0.000000 -0.060000
v 0.280000 -0.020000 -0.040000
v 0.300000 0.224000 -0.060000
v 0.280000 0.204000 -0.040000
v 0.011000 0.224000 -0.060000
v -0.009000 0.204000 -0.040000
v 0.011000 0.269000 -0.060000
v -0.009000 0.276135 -0.040000
v 0.356000 0.691000 -0.060000
v 0.346518 0.711000 -0.040000
v 0.398000 0.691000 -0.060000
v 0.418000 0.711000 -0.040000
v 0.398000 0.312000 -0.060000
v 0.418000 0.332000 -0.040000
v 0.491000 0.332000 -0.040000
v 0.491000 0.332000 0.040000
v 0.491000 0.204000 -0.040000
v 0.491000 0.204000 0.040000
v 0.418000 0.204000 -0.040000
v 0.418000 0.204000 0.040000
v 0.418000 -0.020000 -0.040000
v 0.418000 -0.020000 0.040000
v 0.280000 -0.020000 -0.040000
v 0.280000 -0.020000 0.040000
v 0.280000 0.204000 -0.040000
v 0.280000 0.204000 0.040000
v -0.009000 0.204000 -0.040000
v -0.009000 0.204000 0.040000
v -0.009000 0.276135 -0.040000
v -0.009000 0.276135 0.040000
v 0.346518 0.711000 -0.040000
v 0.346518 0.711000 0.040000
v 0.418000 0.711000 -0.040000
v 0.418000 0.711000 0.040000
v 0.418000 0.332000 -0.040000
v 0.418000 0.332000 0.040000
v 0.491000 0.332000 0.040000
v 0.471000 0.312000 0.060000
v 0.491000 0.204000 0.040000
v 0.471000 0.224000 0.060000
v 0.418000 0.204000 0.040000
v 0.398000 0.224000 0.060000
v 0.418000 -0.020000 0.040000
v 0.398000 0.000000 0.060000
v 0.280000 -0.020000 0.040000
v 0.300000 0.000000 0.060000
v 0.280000 0.204000 0.040000
v 0.300000 0.224000 0.060000
v -0.009000 0.204000 0.040000
v 0.011000 0.224000 0.060000
v -0.009000 0.276135 0.040000
v 0.011000 0.269000 0.060000
v 0.346518 0.711000 0.040000
v 0.356000 0.691000 0.060000
v 0.418000 0.711000 0.040000
v 0.398000 0.691000 0.060000
v 0.418000 0.332000 0.040000
v 0.398000 0.312000 0.060000
v 0.300000 0.312000 -0.060000
v 0.280000 0.332000 -0.040000
v 0.300000 0.506000 -0.060000
v 0.280000 0.486000 -0.040000
v 0.298000 0.506000 -0.060000
v 0.307582 0.486000 -0.040000
v 0.142000 0.312000 -0.060000
v 0.183747 0.332000 -0.040000
v 0.280000 0.332000 -0.040000
v 0.280000 0.332000 0.040000
v 0.280000 0.486000 -0.040000
v 0.280000 0.486000 0.040000
v 0.307582 0.486000 -0.040000
v 0.307582 0.486000 0.040000
v 0.183747 0.332000 -0.040000
v 0.183747 0.332000 0.040000
v 0.280000 0.332000 0.040000
v 0.300000 0.312000 0.060000
v 0.280000 0.486000 0.040000
v 0.300000 0.506000 0.060000
v 0.307582 0.486000 0.040000
v 0.298000 0.506000 0.060000
v 0.183747 0.332000 0.040000
v 0.142000 0.312000 0.060000
vt 0.500000 0.000000
vt 0.642857 0.000000
vt 0.571429 0.000000
vt 0.928571 0.000000
vt 0.857143 0.000000
vt 0.714286 0.000000
vt 1.000000 0.000000
vt 0.785714 0.000000
vt 0.000000 0.000000
vt 0.071429 0.000000
vt 0.428571 0.000000
vt 0.357143 0.000000
vt 0.285714 0.000000
vt 0.142857 0.000000
vt 0.214286 0.000000
vt 0.000000 1.000000
vt 0.100000 1.000000
vt 0.200000 1.000000
vt 0.200000 0.000000
vt 0.300000 1.000000
vt 0.400000 1.000000
vt 0.300000 0.000000
vt 0.500000 1.000000
vt 0.600000 1.000000
vt 0.700000 1.000000
vt 0.700000 0.000000
vt 0.800000 1.000000
vt 0.900000 1.000000
vt 0.800000 0.000000
vt 1.000000 1.000000
vt 0.100000 0.000000
vt 0.400000 0.000000
vt 0.600000 0.000000
vt 0.900000 0.000000
vt 0.333333 1.000000
vt 0.666667 1.000000
vt 0.666667 0.000000
vt 0.333333 0.000000
vn 0.000000 0.000000 1.000000
vn 0.000000 -0.000000 -1.000000
vn 0.408248 0.408248 -0.816497
vn 0.408248 -0.408248 -0.816497
vn 0.408248 0.408247 -0.816497
vn -0.408248 -0.408248 -0.816497
vn -0.408248 -0.408249 -0.816496
vn -0.645766 0.230374 -0.727952
vn -0.287217 0.605795 -0.741969
vn 0.707107 0.707107 0.000000
vn 0.707107 -0.707107 0.000000
vn -0.707107 -0.707107 0.000000
vn -0.941860 0.336004 0.000000
vn -0.428405 0.903587 0.000000
vn 0.408248 0.408247 0.816497
vn 0.408248 -0.408248 0.816497
vn 0.408248 0.408248 0.816497
vn -0.408248 -0.408248 0.816497
vn -0.408249 -0.408249 0.816496
vn -0.645766 0.230374 0.727952
vn -0.287217 0.605795 0.741969
vn 0.408248 0.408249 0.816496
vn 0.408249 0.408248 0.816496
vn -0.408248 0.408248 -0.816497
vn -0.814343 0.355834 -0.458506
vn 0.914179 0.034091 -0.403874
vn 0.289358 -0.603994 -0.742605
vn 0.357692 0.171363 -0.917982
vn -0.707107 0.707107 0.000000
vn 0.901846 0.432057 0.000000
vn 0.901846 0.432058 0.000000
vn -0.408248 0.408248 0.816497
vn -0.408250 -0.408260 0.816490
vn 0.289358 -0.603990 0.742609
vn 0.914180 0.034091 0.403873
vn 0.357692 0.171363 0.917982
vn -0.408249 -0.408249 -0.816496
vn 0.408248 0.408249 0.816497
vn -0.408249 -0.408254 -0.816493
vn -0.814342 0.355835 0.458506
usemtl Material
s off
f 8/1/1 10/2/1 9/3/1
f 8/1/1 14/4/1 10/2/1
f 14/4/1 13/5/1 10/2/1
f 13/5/1 11/6/1 10/2/1
f 8/1/1 15/7/1 14/4/1
f 12/8/1 11/6/1 13/5/1
f 8/1/1 12/8/1 15/7/1
f 8/1/1 11/6/1 12/8/1
f 8/1/1 1/9/1 11/6/1
f 8/1/1 2/10/1 1/9/1
f 7/11/1 2/10/1 8/1/1
f 6/12/1 2/10/1 7/11/1
f 5/13/1 3/14/1 6/12/1
f 3/14/1 2/10/1 6/12/1
f 5/13/1 4/15/1 3/14/1
f 25/2/2 23/1/2 24/3/2
f 29/4/2 23/1/2 25/2/2
f 28/5/2 29/4/2 25/2/2
f 26/6/2 28/5/2 25/2/2
f 30/7/2 23/1/2 29/4/2
f 26/6/2 27/8/2 28/5/2
f 27/8/2 23/1/2 30/7/2
f 26/6/2 23/1/2 27/8/2
f 16/9/2 23/1/2 26/6/2
f 17/10/2 23/1/2 16/9/2
f 17/10/2 22/11/2 23/1/2
f 17/10/1 21/12/1 22/11/1
f 18/14/2 20/13/2 21/12/2
f 17/10/1 18/14/1 21/12/1
f 19/15/2 20/13/2 18/14/2
s 1
f 32/16/3 34/17/4 31/9/5
f 34/17/4 36/18/4 35/19/4
f 36/18/4 38/20/4 35/19/4
f 38/20/4 40/21/6 37/22/4
f 40/21/6 42/23/6 41/1/6
f 42/23/6 44/24/7 41/1/6
f 44/24/7 46/25/8 45/26/8
f 46/25/8 48/27/9 45/26/8
f 48/27/9 50/28/3 47/29/9
f 50/28/3 52/30/3 51/7/3
f 52/30/3 32/16/3 51/7/3
f 54/16/10 56/17/11 53/9/10
f 56/17/11 58/18/11 55/31/11
f 58/18/11 60/20/11 57/19/11
f 60/20/11 62/21/12 59/22/11
f 62/21/12 64/23/12 61/32/12
f 64/23/12 66/24/12 63/1/12
f 66/24/12 68/25/13 65/33/12
f 68/25/13 70/27/14 67/26/13
f 70/27/14 72/28/10 69/29/14
f 72/28/10 74/30/10 71/34/10
f 74/30/10 54/16/10 73/7/10
f 76/16/15 78/17/16 75/9/17
f 78/17/16 80/18/16 77/31/16
f 80/18/16 82/20/16 81/22/16
f 82/20/16 84/21/18 81/22/16
f 84/21/18 86/23/18 83/32/18
f 86/23/18 88/24/19 87/33/19
f 88/24/19 90/25/20 87/33/19
f 90/25/20 92/27/21 91/29/21
f 92/27/21 94/28/22 93/34/23
f 94/28/22 96/30/17 93/34/23
f 96/30/17 76/16/15 75/9/17
f 98/16/24 100/35/25 97/9/24
f 100/35/25 102/36/26 101/37/27
f 102/36/26 104/30/28 103/7/28
f 104/30/28 98/16/24 103/7/28
f 106/16/29 108/35/29 105/9/29
f 108/35/29 110/36/30 107/38/29
f 110/36/30 112/30/30 109/37/31
f 112/30/30 106/16/29 111/7/30
f 114/16/32 116/35/33 113/9/32
f 116/35/33 118/36/34 117/37/35
f 118/36/34 120/30/36 117/37/35
f 120/30/36 114/16/32 113/9/32
f 34/17/4 33/31/4 31/9/5
f 33/31/4 34/17/4 35/19/4
f 38/20/4 37/22/4 35/19/4
f 40/21/6 39/32/6 37/22/4
f 39/32/6 40/21/6 41/1/6
f 44/24/7 43/33/37 41/1/6
f 43/33/37 44/24/7 45/26/8
f 48/27/9 47/29/9 45/26/8
f 50/28/3 49/34/3 47/29/9
f 49/34/3 50/28/3 51/7/3
f 32/16/3 31/9/5 51/7/3
f 56/17/11 55/31/11 53/9/10
f 58/18/11 57/19/11 55/31/11
f 60/20/11 59/22/11 57/19/11
f 62/21/12 61/32/12 59/22/11
f 64/23/12 63/1/12 61/32/12
f 66/24/12 65/33/12 63/1/12
f 68/25/13 67/26/13 65/33/12
f 70/27/14 69/29/14 67/26/13
f 72/28/10 71/34/10 69/29/14
f 74/30/10 73/7/10 71/34/10
f 54/16/10 53/9/10 73/7/10
f 78/17/16 77/31/16 75/9/17
f 80/18/16 79/19/16 77/31/16
f 79/19/16 80/18/16 81/22/16
f 84/21/18 83/32/18 81/22/16
f 86/23/18 85/1/18 83/32/18
f 85/1/18 86/23/18 87/33/19
f 90/25/20 89/26/20 87/33/19
f 89/26/20 90/25/20 91/29/21
f 91/29/21 92/27/21 93/34/23
f 96/30/17 95/7/38 93/34/23
f 95/7/38 96/30/17 75/9/17
f 100/35/25 99/38/39 97/9/24
f 99/38/39 100/35/25 101/37/27
f 101/37/27 102/36/26 103/7/28
f 98/16/24 97/9/24 103/7/28
f 108/35/29 107/38/29 105/9/29
f 110/36/30 109/37/31 107/38/29
f 112/30/30 111/7/30 109/37/31
f 106/16/29 105/9/29 111/7/30
f 116/35/33 115/38/40 113/9/32
f 115/38/40 116/35/33 117/37/35
f 120/30/36 119/7/36 117/37/35
f 119/7/36 120/30/36 113/9/32
