# Blender v2.69 (sub 0) OBJ File: 'Digits.blend'
# www.blender.org
mtllib Digit0.mtl
o Digit_Text
v 0.159938 0.016156 0.060000
v 0.090500 0.087250 0.060000
v 0.045813 0.197719 0.060000
v 0.030000 0.341000 0.060000
v 0.045812 0.484281 0.060000
v 0.090500 0.594750 0.060000
v 0.159938 0.665844 0.060000
v 0.250000 0.691000 0.060000
v 0.340062 0.665844 0.060000
v 0.409500 0.594750 0.060000
v 0.454188 0.484281 0.060000
v 0.470000 0.341000 0.060000
v 0.454188 0.197719 0.060000
v 0.409500 0.087250 0.060000
v 0.340062 0.016156 0.060000
v 0.250000 -0.009000 0.060000
v 0.198875 0.580344 0.060000
v 0.160500 0.529500 0.060000
v 0.136375 0.448656 0.060000
v 0.128000 0.341000 0.060000
v 0.136375 0.233344 0.060000
v 0.160500 0.152500 0.060000
v 0.198875 0.101656 0.060000
v 0.250000 0.084000 0.060000
v 0.301125 0.101656 0.060000
v 0.339500 0.152500 0.060000
v 0.363625 0.233344 0.060000
v 0.372000 0.341000 0.060000
v 0.363625 0.448656 0.060000
v 0.339500 0.529500 0.060000
v 0.301125 0.580344 0.060000
v 0.250000 0.598000 0.060000
v 0.159938 0.016156 -0.060000
v 0.090500 0.087250 -0.060000
v 0.045813 0.197719 -0.060000
v 0.030000 0.341000 -0.060000
v 0.045812 0.484281 -0.060000
v 0.090500 0.594750 -0.060000
v 0.159938 0.665844 -0.060000
v 0.250000 0.691000 -0.060000
v 0.340062 0.665844 -0.060000
v 0.409500 0.594750 -0.060000
v 0.454188 0.484281 -0.060000
v 0.470000 0.341000 -0.060000
v 0.454188 0.197719 -0.060000
v 0.409500 0.087250 -0.060000
v 0.340062 0.016156 -0.060000
v 0.250000 -0.009000 -0.060000
v 0.198875 0.580344 -0.060000
v 0.160500 0.529500 -0.060000
v 0.136375 0.448656 -0.060000
v 0.128000 0.341000 -0.060000
v 0.136375 0.233344 -0.060000
v 0.160500 0.152500 -0.060000
v 0.198875 0.101656 -0.060000
v 0.250000 0.084000 -0.060000
v 0.301125 0.101656 -0.060000
v 0.339500 0.152500 -0.060000
v 0.363625 0.233344 -0.060000
v 0.372000 0.341000 -0.060000
v 0.363625 0.448656 -0.060000
v 0.339500 0.529500 -0.060000
v 0.301125 0.580344 -0.060000
v 0.250000 0.598000 -0.060000
v 0.159938 0.016156 -0.060000
v 0.149383 -0.001661 -0.040000
v 0.090500 0.087250 -0.060000
v 0.073438 0.076096 -0.040000
v 0.045813 0.197719 -0.060000
v 0.026236 0.192779 -0.040000
v 0.030000 0.341000 -0.060000
v 0.009879 0.341000 -0.040000
v 0.045812 0.484281 -0.060000
v 0.026236 0.489221 -0.040000
v 0.090500 0.594750 -0.060000
v 0.073438 0.605904 -0.040000
v 0.159938 0.665844 -0.060000
v 0.149383 0.683661 -0.040000
v 0.250000 0.691000 -0.060000
v 0.250000 0.711766 -0.040000
v 0.340062 0.665844 -0.060000
v 0.350617 0.683661 -0.040000
v 0.409500 0.594750 -0.060000
v 0.426562 0.605904 -0.040000
v 0.454188 0.484281 -0.060000
v 0.473764 0.489221 -0.040000
v 0.470000 0.341000 -0.060000
v 0.490121 0.341000 -0.040000
v 0.454188 0.197719 -0.060000
v 0.473764 0.192779 -0.040000
v 0.409500 0.087250 -0.060000
v 0.426562 0.076096 -0.040000
v 0.340062 0.016156 -0.060000
v 0.350617 -0.001661 -0.040000
v 0.250000 -0.009000 -0.060000
v 0.250000 -0.029766 -0.040000
v 0.149383 -0.001661 -0.040000
v 0.149383 -0.001661 0.040000
v 0.073438 0.076096 -0.040000
v 0.073438 0.076096 0.040000
v 0.026236 0.192779 -0.040000
v 0.026236 0.192779 0.040000
v 0.009879 0.341000 -0.040000
v 0.009879 0.341000 0.040000
v 0.026236 0.489221 -0.040000
v 0.026236 0.489221 0.040000
v 0.073438 0.605904 -0.040000
v 0.073438 0.605904 0.040000
v 0.149383 0.683661 -0.040000
v 0.149383 0.683661 0.040000
v 0.250000 0.711766 -0.040000
v 0.250000 0.711766 0.040000
v 0.350617 0.683661 -0.040000
v 0.350617 0.683661 0.040000
v 0.426562 0.605904 -0.040000
v 0.426562 0.605904 0.040000
v 0.473764 0.489221 -0.040000
v 0.473764 0.489221 0.040000
v 0.490121 0.341000 -0.040000
v 0.490121 0.341000 0.040000
v 0.473764 0.192779 -0.040000
v 0.473764 0.192779 0.040000
v 0.426562 0.076096 -0.040000
v 0.426562 0.076096 0.040000
v 0.350617 -0.001661 -0.040000
v 0.350617 -0.001661 0.040000
v 0.250000 -0.029766 -0.040000
v 0.250000 -0.029766 0.040000
v 0.149383 -0.001661 0.040000
v 0.159938 0.016156 0.060000
v 0.073438 0.076096 0.040000
v 0.090500 0.087250 0.060000
v 0.026236 0.192779 0.040000
v 0.045813 0.197719 0.060000
v 0.009879 0.341000 0.040000
v 0.030000 0.341000 0.060000
v 0.026236 0.489221 0.040000
v 0.045812 0.484281 0.060000
v 0.073438 0.605904 0.040000
v 0.090500 0.594750 0.060000
v 0.149383 0.683661 0.040000
v 0.159938 0.665844 0.060000
v 0.250000 0.711766 0.040000
v 0.250000 0.691000 0.060000
v 0.350617 0.683661 0.040000
v 0.340062 0.665844 0.060000
v 0.426562 0.605904 0.040000
v 0.409500 0.594750 0.060000
v 0.473764 0.489221 0.040000
v 0.454188 0.484281 0.060000
v 0.490121 0.341000 0.040000
v 0.470000 0.341000 0.060000
v 0.473764 0.192779 0.040000
v 0.454188 0.197719 0.060000
v 0.426562 0.076096 0.040000
v 0.409500 0.087250 0.060000
v 0.350617 -0.001661 0.040000
v 0.340062 0.016156 0.060000
v 0.250000 -0.029766 0.040000
v 0.250000 -0.009000 0.060000
v 0.198875 0.580344 -0.060000
v 0.211166 0.563429 -0.040000
v 0.160500 0.529500 -0.060000
v 0.178634 0.520328 -0.040000
v 0.136375 0.448656 -0.060000
v 0.156149 0.444980 -0.040000
v 0.128000 0.341000 -0.060000
v 0.148060 0.341000 -0.040000
v 0.136375 0.233344 -0.060000
v 0.156149 0.237020 -0.040000
v 0.160500 0.152500 -0.060000
v 0.178634 0.161672 -0.040000
v 0.198875 0.101656 -0.060000
v 0.211166 0.118571 -0.040000
v 0.250000 0.084000 -0.060000
v 0.250000 0.105159 -0.040000
v 0.301125 0.101656 -0.060000
v 0.288834 0.118571 -0.040000
v 0.339500 0.152500 -0.060000
v 0.321366 0.161672 -0.040000
v 0.363625 0.233344 -0.060000
v 0.343851 0.237020 -0.040000
v 0.372000 0.341000 -0.060000
v 0.351940 0.341000 -0.040000
v 0.363625 0.448656 -0.060000
v 0.343851 0.444980 -0.040000
v 0.339500 0.529500 -0.060000
v 0.321366 0.520328 -0.040000
v 0.301125 0.580344 -0.060000
v 0.288834 0.563429 -0.040000
v 0.250000 0.598000 -0.060000
v 0.250000 0.576841 -0.040000
v 0.211166 0.563429 -0.040000
v 0.211166 0.563429 0.040000
v 0.178634 0.520328 -0.040000
v 0.178634 0.520328 0.040000
v 0.156149 0.444980 -0.040000
v 0.156149 0.444980 0.040000
v 0.148060 0.341000 -0.040000
v 0.148060 0.341000 0.040000
v 0.156149 0.237020 -0.040000
v 0.156149 0.237020 0.040000
v 0.178634 0.161672 -0.040000
v 0.178634 0.161672 0.040000
v 0.211166 0.118571 -0.040000
v 0.211166 0.118571 0.040000
v 0.250000 0.105159 -0.040000
v 0.250000 0.105159 0.040000
v 0.288834 0.118571 -0.040000
v 0.288834 0.118571 0.040000
v 0.321366 0.161672 -0.040000
v 0.321366 0.161672 0.040000
v 0.343851 0.237020 -0.040000
v 0.343851 0.237020 0.040000
v 0.351940 0.341000 -0.040000
v 0.351940 0.341000 0.040000
v 0.343851 0.444980 -0.040000
v 0.343851 0.444980 0.040000
v 0.321366 0.520328 -0.040000
v 0.321366 0.520328 0.040000
v 0.288834 0.563429 -0.040000
v 0.288834 0.563429 0.040000
v 0.250000 0.576841 -0.040000
v 0.250000 0.576841 0.040000
v 0.211166 0.563429 0.040000
v 0.198875 0.580344 0.060000
v 0.178634 0.520328 0.040000
v 0.160500 0.529500 0.060000
v 0.156149 0.444980 0.040000
v 0.136375 0.448656 0.060000
v 0.148060 0.341000 0.040000
v 0.128000 0.341000 0.060000
v 0.156149 0.237020 0.040000
v 0.136375 0.233344 0.060000
v 0.178634 0.161672 0.040000
v 0.160500 0.152500 0.060000
v 0.211166 0.118571 0.040000
v 0.198875 0.101656 0.060000
v 0.250000 0.105159 0.040000
v 0.250000 0.084000 0.060000
v 0.288834 0.118571 0.040000
v 0.301125 0.101656 0.060000
v 0.321366 0.161672 0.040000
v 0.339500 0.152500 0.060000
v 0.343851 0.237020 0.040000
v 0.363625 0.233344 0.060000
v 0.351940 0.341000 0.040000
v 0.372000 0.341000 0.060000
v 0.343851 0.444980 0.040000
v 0.363625 0.448656 0.060000
v 0.321366 0.520328 0.040000
v 0.339500 0.529500 0.060000
v 0.288834 0.563429 0.040000
v 0.301125 0.580344 0.060000
v 0.250000 0.576841 0.040000
v 0.250000 0.598000 0.060000
vt 0.193548 0.000000
vt 0.258065 0.000000
vt 0.225806 0.000000
vt 0.290323 0.000000
vt 0.161290 0.000000
vt 1.000000 0.000000
vt 0.516129 0.000000
vt 0.967742 0.000000
vt 0.129032 0.000000
vt 0.322581 0.000000
vt 0.548387 0.000000
vt 0.935484 0.000000
vt 0.580645 0.000000
vt 0.903226 0.000000
vt 0.096774 0.000000
vt 0.354839 0.000000
vt 0.612903 0.000000
vt 0.870968 0.000000
vt 0.064516 0.000000
vt 0.645161 0.000000
vt 0.838710 0.000000
vt 0.387097 0.000000
vt 0.806452 0.000000
vt 0.677419 0.000000
vt 0.032258 0.000000
vt 0.419355 0.000000
vt 0.709677 0.000000
vt 0.774194 0.000000
vt 0.741935 0.000000
vt 0.000000 0.000000
vt 0.451613 0.000000
vt 0.483871 0.000000
vt 0.000000 1.000000
vt 0.066667 1.000000
vt 0.066667 0.000000
vt 0.133333 1.000000
vt 0.133333 0.000000
vt 0.200000 1.000000
vt 0.200000 0.000000
vt 0.266667 1.000000
vt 0.333333 1.000000
vt 0.266667 0.000000
vt 0.400000 1.000000
vt 0.333333 0.000000
vt 0.466667 1.000000
vt 0.400000 0.000000
vt 0.533333 1.000000
vt 0.533333 0.000000
vt 0.600000 1.000000
vt 0.600000 0.000000
vt 0.666667 1.000000
vt 0.666667 0.000000
vt 0.733333 1.000000
vt 0.733333 0.000000
vt 0.800000 1.000000
vt 0.866667 1.000000
vt 0.800000 0.000000
vt 0.933333 1.000000
vt 0.866667 0.000000
vt 1.000000 1.000000
vt 0.933333 0.000000
vt 0.466667 0.000000
vn 0.000000 0.000000 1.000000
vn 0.000000 -0.000000 -1.000000
vn -0.354050 -0.597696 -0.719311
vn -0.586187 -0.383220 -0.713812
vn -0.682373 -0.172175 -0.710439
vn -0.704964 -0.000000 -0.709243
vn -0.682373 0.172174 -0.710439
vn -0.586187 0.383220 -0.713812
vn -0.354050 0.597697 -0.719310
vn -0.000000 0.693706 -0.720259
vn 0.354049 0.597696 -0.719312
vn 0.586187 0.383220 -0.713812
vn 0.682372 0.172174 -0.710439
vn 0.704964 -0.000000 -0.709244
vn 0.682372 -0.172175 -0.710439
vn 0.586187 -0.383220 -0.713812
vn 0.354050 -0.597696 -0.719311
vn -0.000000 -0.693706 -0.720259
vn -0.509652 -0.860380 0.000000
vn -0.837006 -0.547194 0.000000
vn -0.969612 -0.244650 0.000000
vn -1.000000 -0.000000 0.000000
vn -0.969611 -0.244650 0.000000
vn -0.969611 0.244650 0.000000
vn -0.837006 0.547194 0.000000
vn -0.509652 0.860380 0.000000
vn -0.000000 1.000000 0.000000
vn 0.509652 0.860380 0.000000
vn 0.837006 0.547194 0.000000
vn 0.509652 0.860381 0.000000
vn 0.969611 0.244650 0.000000
vn 1.000000 0.000000 0.000000
vn 0.969612 -0.244650 0.000000
vn 0.837006 -0.547194 0.000000
vn 0.969611 -0.244650 0.000000
vn 0.509652 -0.860380 0.000000
vn -0.000000 -1.000000 0.000000
vn -0.354050 -0.597696 0.719311
vn -0.586187 -0.383220 0.713812
vn -0.682373 -0.172174 0.710439
vn -0.704964 0.000000 0.709243
vn -0.682373 0.172175 0.710439
vn -0.586187 0.383220 0.713812
vn -0.354050 0.597697 0.719310
vn -0.000000 0.693706 0.720259
vn -0.000000 0.693706 0.720258
vn 0.354049 0.597696 0.719311
vn 0.586186 0.383220 0.713812
vn 0.682372 0.172175 0.710439
vn 0.586187 0.383220 0.713812
vn 0.704964 -0.000000 0.709244
vn 0.682372 0.172174 0.710439
vn 0.682373 -0.172174 0.710439
vn 0.586187 -0.383220 0.713812
vn 0.354050 -0.597696 0.719311
vn -0.000000 -0.693705 0.720259
vn 0.406338 -0.559190 -0.722631
vn 0.625926 -0.316590 -0.712732
vn 0.406338 -0.559190 -0.722632
vn 0.693228 -0.128884 -0.709101
vn 0.706039 -0.000000 -0.708173
vn 0.693228 0.128884 -0.709101
vn 0.625926 0.316590 -0.712732
vn 0.625927 0.316590 -0.712732
vn 0.406338 0.559190 -0.722632
vn 0.406338 0.559190 -0.722631
vn 0.000000 0.686921 -0.726732
vn -0.406338 0.559190 -0.722631
vn -0.625926 0.316590 -0.712732
vn -0.406338 0.559190 -0.722632
vn -0.693228 0.128884 -0.709101
vn -0.706040 -0.000000 -0.708172
vn -0.693228 -0.128884 -0.709101
vn -0.625927 -0.316591 -0.712731
vn -0.625927 -0.316590 -0.712731
vn -0.406338 -0.559190 -0.722631
vn -0.406339 -0.559190 -0.722631
vn -0.000000 -0.686922 -0.726731
vn 0.587844 -0.808974 0.000000
vn 0.892350 -0.451345 0.000000
vn 0.983153 -0.182786 0.000000
vn 0.983153 0.182787 0.000000
vn 0.892349 0.451345 0.000000
vn 0.983153 0.182786 0.000000
vn 0.587845 0.808974 0.000000
vn -0.587844 0.808974 0.000000
vn -0.892349 0.451346 0.000000
vn -0.587845 0.808974 0.000000
vn -0.983153 0.182786 0.000000
vn -0.892349 0.451345 0.000000
vn -0.983153 -0.182787 0.000000
vn -0.892350 -0.451345 0.000000
vn -0.587845 -0.808974 0.000000
vn -0.892349 -0.451345 0.000000
vn -0.000001 -1.000000 0.000000
vn 0.406338 -0.559190 0.722632
vn 0.625926 -0.316590 0.712732
vn 0.693228 -0.128884 0.709101
vn 0.706039 0.000000 0.708173
vn 0.693228 0.128884 0.709101
vn 0.625926 0.316590 0.712732
vn 0.406338 0.559190 0.722631
vn 0.000000 0.686921 0.726732
vn -0.406338 0.559190 0.722631
vn -0.406338 0.559191 0.722631
vn -0.625926 0.316590 0.712732
vn -0.693228 0.128884 0.709101
vn -0.693228 0.128884 0.709100
vn -0.706040 0.000000 0.708172
vn -0.706039 0.000000 0.708172
vn -0.693228 -0.128884 0.709101
vn -0.625927 -0.316590 0.712732
vn -0.406339 -0.559190 0.722631
vn -0.000000 -0.686922 0.726731
vn -0.406338 -0.559190 0.722631
vn 0.406338 -0.559190 0.722631
vn 0.704964 -0.000000 0.709243
usemtl Material
s off
f 7/1/1 9/2/1 8/3/1
f 7/1/1 10/4/1 9/2/1
f 6/5/1 32/6/1 7/1/1
f 32/6/1 10/4/1 7/1/1
f 6/5/1 17/7/1 32/6/1
f 31/8/1 10/4/1 32/6/1
f 5/9/1 17/7/1 6/5/1
f 31/8/1 11/10/1 10/4/1
f 5/9/1 18/11/1 17/7/1
f 30/12/1 11/10/1 31/8/1
f 5/9/1 19/13/1 18/11/1
f 29/14/1 11/10/1 30/12/1
f 4/15/1 19/13/1 5/9/1
f 29/14/1 12/16/1 11/10/1
f 4/15/1 20/17/1 19/13/1
f 28/18/1 12/16/1 29/14/1
f 3/19/1 20/17/1 4/15/1
f 3/19/1 21/20/1 20/17/1
f 27/21/1 12/16/1 28/18/1
f 27/21/1 13/22/1 12/16/1
f 26/23/1 13/22/1 27/21/1
f 3/19/1 22/24/1 21/20/1
f 2/25/1 22/24/1 3/19/1
f 26/23/1 14/26/1 13/22/1
f 2/25/1 23/27/1 22/24/1
f 25/28/1 14/26/1 26/23/1
f 2/25/1 24/29/1 23/27/1
f 24/29/1 14/26/1 25/28/1
f 1/30/1 24/29/1 2/25/1
f 24/29/1 15/31/1 14/26/1
f 1/30/1 15/31/1 24/29/1
f 16/32/1 15/31/1 1/30/1
f 41/2/2 39/1/2 40/3/2
f 42/4/2 39/1/2 41/2/2
f 64/6/2 38/5/2 39/1/2
f 42/4/2 64/6/2 39/1/2
f 49/7/2 38/5/2 64/6/2
f 42/4/2 63/8/2 64/6/2
f 49/7/2 37/9/2 38/5/2
f 43/10/2 63/8/2 42/4/2
f 50/11/2 37/9/2 49/7/2
f 43/10/2 62/12/2 63/8/2
f 51/13/2 37/9/2 50/11/2
f 43/10/2 61/14/2 62/12/2
f 51/13/2 36/15/2 37/9/2
f 44/16/2 61/14/2 43/10/2
f 52/17/2 36/15/2 51/13/2
f 44/16/2 60/18/2 61/14/2
f 52/17/2 35/19/2 36/15/2
f 53/20/2 35/19/2 52/17/2
f 44/16/2 59/21/2 60/18/2
f 45/22/2 59/21/2 44/16/2
f 45/22/2 58/23/2 59/21/2
f 54/24/2 35/19/2 53/20/2
f 54/24/2 34/25/2 35/19/2
f 46/26/2 58/23/2 45/22/2
f 55/27/2 34/25/2 54/24/2
f 46/26/2 57/28/2 58/23/2
f 56/29/2 34/25/2 55/27/2
f 46/26/2 56/29/2 57/28/2
f 56/29/2 33/30/2 34/25/2
f 47/31/2 56/29/2 46/26/2
f 47/31/2 33/30/2 56/29/2
f 47/31/2 48/32/2 33/30/2
s 1
f 66/33/3 68/34/4 67/35/4
f 68/34/4 70/36/5 69/37/5
f 70/36/5 72/38/6 71/39/6
f 72/38/6 74/40/7 71/39/6
f 74/40/7 76/41/8 73/42/7
f 76/41/8 78/43/9 75/44/8
f 78/43/9 80/45/10 77/46/9
f 80/45/10 82/47/11 81/48/11
f 82/47/11 84/49/12 83/50/12
f 84/49/12 86/51/13 85/52/13
f 86/51/13 88/53/14 87/54/14
f 88/53/14 90/55/15 87/54/14
f 90/55/15 92/56/16 89/57/15
f 92/56/16 94/58/17 91/59/16
f 94/58/17 96/60/18 93/61/17
f 96/60/18 66/33/3 65/30/3
f 98/33/19 100/34/20 97/30/19
f 100/34/20 102/36/21 99/35/20
f 102/36/21 104/38/22 101/37/23
f 104/38/22 106/40/24 103/39/22
f 106/40/24 108/41/25 105/42/24
f 108/41/25 110/43/26 107/44/25
f 110/43/26 112/45/27 109/46/26
f 112/45/27 114/47/28 111/62/27
f 114/47/28 116/49/29 113/48/30
f 116/49/29 118/51/31 115/50/29
f 118/51/31 120/53/32 117/52/31
f 120/53/32 122/55/33 119/54/32
f 122/55/33 124/56/34 121/57/35
f 124/56/34 126/58/36 123/59/34
f 126/58/36 128/60/37 125/61/36
f 128/60/37 98/33/19 127/6/37
f 130/33/38 132/34/39 129/30/38
f 132/34/39 134/36/40 131/35/39
f 134/36/40 136/38/41 133/37/40
f 136/38/41 138/40/42 137/42/42
f 138/40/42 140/41/43 139/44/43
f 140/41/43 142/43/44 141/46/44
f 142/43/44 144/45/45 143/62/46
f 144/45/45 146/47/47 143/62/46
f 146/47/47 148/49/48 145/48/47
f 148/49/48 150/51/49 147/50/50
f 150/51/49 152/53/51 149/52/52
f 152/53/51 154/55/53 153/57/53
f 154/55/53 156/56/54 155/59/54
f 156/56/54 158/58/55 157/61/55
f 158/58/55 160/60/56 159/6/56
f 160/60/56 130/33/38 159/6/56
f 162/33/57 164/34/58 161/30/59
f 164/34/58 166/36/60 163/35/58
f 166/36/60 168/38/61 165/37/60
f 168/38/61 170/40/62 169/42/62
f 170/40/62 172/41/63 171/44/64
f 172/41/63 174/43/65 173/46/66
f 174/43/65 176/45/67 175/62/67
f 176/45/67 178/47/68 175/62/67
f 178/47/68 180/49/69 177/48/70
f 180/49/69 182/51/71 179/50/69
f 182/51/71 184/53/72 181/52/71
f 184/53/72 186/55/73 185/57/73
f 186/55/73 188/56/74 187/59/75
f 188/56/74 190/58/76 189/61/77
f 190/58/76 192/60/78 191/6/78
f 192/60/78 162/33/57 191/6/78
f 194/33/79 196/34/80 193/30/79
f 196/34/80 198/36/81 195/35/80
f 198/36/81 200/38/32 197/37/81
f 200/38/32 202/40/82 199/39/32
f 202/40/82 204/41/83 201/42/84
f 204/41/83 206/43/85 203/44/83
f 206/43/85 208/45/27 205/46/85
f 208/45/27 210/47/86 207/62/27
f 210/47/86 212/49/87 209/48/88
f 212/49/87 214/51/89 211/50/90
f 214/51/89 216/53/22 213/52/89
f 216/53/22 218/55/91 215/54/22
f 218/55/91 220/56/92 217/57/91
f 220/56/92 222/58/93 219/59/94
f 222/58/93 224/60/95 221/61/93
f 224/60/95 194/33/79 223/6/37
f 226/33/96 228/34/97 227/35/97
f 228/34/97 230/36/98 229/37/98
f 230/36/98 232/38/99 231/39/99
f 232/38/99 234/40/100 231/39/99
f 234/40/100 236/41/101 233/42/100
f 236/41/101 238/43/102 235/44/101
f 238/43/102 240/45/103 237/46/102
f 240/45/103 242/47/104 241/48/105
f 242/47/104 244/49/106 243/50/106
f 244/49/106 246/51/107 245/52/108
f 246/51/107 248/53/109 247/54/110
f 248/53/109 250/55/111 247/54/110
f 250/55/111 252/56/112 249/57/111
f 252/56/112 254/58/113 251/59/112
f 254/58/113 256/60/114 253/61/115
f 256/60/114 226/33/96 225/30/116
f 65/30/3 66/33/3 67/35/4
f 67/35/4 68/34/4 69/37/5
f 69/37/5 70/36/5 71/39/6
f 74/40/7 73/42/7 71/39/6
f 76/41/8 75/44/8 73/42/7
f 78/43/9 77/46/9 75/44/8
f 80/45/10 79/62/10 77/46/9
f 79/62/10 80/45/10 81/48/11
f 81/48/11 82/47/11 83/50/12
f 83/50/12 84/49/12 85/52/13
f 85/52/13 86/51/13 87/54/14
f 90/55/15 89/57/15 87/54/14
f 92/56/16 91/59/16 89/57/15
f 94/58/17 93/61/17 91/59/16
f 96/60/18 95/6/18 93/61/17
f 95/6/18 96/60/18 65/30/3
f 100/34/20 99/35/20 97/30/19
f 102/36/21 101/37/23 99/35/20
f 104/38/22 103/39/22 101/37/23
f 106/40/24 105/42/24 103/39/22
f 108/41/25 107/44/25 105/42/24
f 110/43/26 109/46/26 107/44/25
f 112/45/27 111/62/27 109/46/26
f 114/47/28 113/48/30 111/62/27
f 116/49/29 115/50/29 113/48/30
f 118/51/31 117/52/31 115/50/29
f 120/53/32 119/54/32 117/52/31
f 122/55/33 121/57/35 119/54/32
f 124/56/34 123/59/34 121/57/35
f 126/58/36 125/61/36 123/59/34
f 128/60/37 127/6/37 125/61/36
f 98/33/19 97/30/19 127/6/37
f 132/34/39 131/35/39 129/30/38
f 134/36/40 133/37/40 131/35/39
f 136/38/41 135/39/41 133/37/40
f 135/39/41 136/38/41 137/42/42
f 137/42/42 138/40/42 139/44/43
f 139/44/43 140/41/43 141/46/44
f 141/46/44 142/43/44 143/62/46
f 146/47/47 145/48/47 143/62/46
f 148/49/48 147/50/50 145/48/47
f 150/51/49 149/52/52 147/50/50
f 152/53/51 151/54/117 149/52/52
f 151/54/117 152/53/51 153/57/53
f 153/57/53 154/55/53 155/59/54
f 155/59/54 156/56/54 157/61/55
f 157/61/55 158/58/55 159/6/56
f 130/33/38 129/30/38 159/6/56
f 164/34/58 163/35/58 161/30/59
f 166/36/60 165/37/60 163/35/58
f 168/38/61 167/39/61 165/37/60
f 167/39/61 168/38/61 169/42/62
f 169/42/62 170/40/62 171/44/64
f 171/44/64 172/41/63 173/46/66
f 173/46/66 174/43/65 175/62/67
f 178/47/68 177/48/70 175/62/67
f 180/49/69 179/50/69 177/48/70
f 182/51/71 181/52/71 179/50/69
f 184/53/72 183/54/72 181/52/71
f 183/54/72 184/53/72 185/57/73
f 185/57/73 186/55/73 187/59/75
f 187/59/75 188/56/74 189/61/77
f 189/61/77 190/58/76 191/6/78
f 162/33/57 161/30/59 191/6/78
f 196/34/80 195/35/80 193/30/79
f 198/36/81 197/37/81 195/35/80
f 200/38/32 199/39/32 197/37/81
f 202/40/82 201/42/84 199/39/32
f 204/41/83 203/44/83 201/42/84
f 206/43/85 205/46/85 203/44/83
f 208/45/27 207/62/27 205/46/85
f 210/47/86 209/48/88 207/62/27
f 212/49/87 211/50/90 209/48/88
f 214/51/89 213/52/89 211/50/90
f 216/53/22 215/54/22 213/52/89
f 218/55/91 217/57/91 215/54/22
f 220/56/92 219/59/94 217/57/91
f 222/58/93 221/61/93 219/59/94
f 224/60/95 223/6/37 221/61/93
f 194/33/79 193/30/79 223/6/37
f 225/30/116 226/33/96 227/35/97
f 227/35/97 228/34/97 229/37/98
f 229/37/98 230/36/98 231/39/99
f 234/40/100 233/42/100 231/39/99
f 236/41/101 235/44/101 233/42/100
f 238/43/102 237/46/102 235/44/101
f 240/45/103 239/62/103 237/46/102
f 239/62/103 240/45/103 241/48/105
f 241/48/105 242/47/104 243/50/106
f 243/50/106 244/49/106 245/52/108
f 245/52/108 246/51/107 247/54/110
f 250/55/111 249/57/111 247/54/110
f 252/56/112 251/59/112 249/57/111
f 254/58/113 253/61/115 251/59/112
f 256/60/114 255/6/114 253/61/115
f 255/6/114 256/60/114 225/30/116
