# Blender v2.69 (sub 0) OBJ File: 'Digits.blend'
# www.blender.org
mtllib Digit2.mtl
o Digit_Text
v 0.034000 0.000000 0.060000
v 0.034000 0.007000 0.060000
v 0.094516 0.080531 0.060000
v 0.158875 0.161000 0.060000
v 0.220047 0.242969 0.060000
v 0.271000 0.321000 0.060000
v 0.292000 0.359000 0.060000
v 0.307000 0.393250 0.060000
v 0.316000 0.427875 0.060000
v 0.319000 0.467000 0.060000
v 0.310141 0.518641 0.060000
v 0.285625 0.559125 0.060000
v 0.248547 0.585547 0.060000
v 0.202000 0.595000 0.060000
v 0.165000 0.590469 0.060000
v 0.127250 0.575250 0.060000
v 0.088375 0.546906 0.060000
v 0.048000 0.503000 0.060000
v 0.048000 0.626000 0.060000
v 0.088625 0.654719 0.060000
v 0.128500 0.675000 0.060000
v 0.168375 0.687031 0.060000
v 0.209000 0.691000 0.060000
v 0.293391 0.675438 0.060000
v 0.359125 0.631750 0.060000
v 0.401797 0.564438 0.060000
v 0.417000 0.478000 0.060000
v 0.405250 0.396469 0.060000
v 0.368000 0.311750 0.060000
v 0.302250 0.213906 0.060000
v 0.205000 0.093000 0.060000
v 0.466000 0.093000 0.060000
v 0.466000 0.000000 0.060000
v 0.034000 -0.000000 -0.060000
v 0.034000 0.007000 -0.060000
v 0.094516 0.080531 -0.060000
v 0.158875 0.161000 -0.060000
v 0.220047 0.242969 -0.060000
v 0.271000 0.321000 -0.060000
v 0.292000 0.359000 -0.060000
v 0.307000 0.393250 -0.060000
v 0.316000 0.427875 -0.060000
v 0.319000 0.467000 -0.060000
v 0.310141 0.518641 -0.060000
v 0.285625 0.559125 -0.060000
v 0.248547 0.585547 -0.060000
v 0.202000 0.595000 -0.060000
v 0.165000 0.590469 -0.060000
v 0.127250 0.575250 -0.060000
v 0.088375 0.546906 -0.060000
v 0.048000 0.503000 -0.060000
v 0.048000 0.626000 -0.060000
v 0.088625 0.654719 -0.060000
v 0.128500 0.675000 -0.060000
v 0.168375 0.687031 -0.060000
v 0.209000 0.691000 -0.060000
v 0.293391 0.675438 -0.060000
v 0.359125 0.631750 -0.060000
v 0.401797 0.564438 -0.060000
v 0.417000 0.478000 -0.060000
v 0.405250 0.396469 -0.060000
v 0.368000 0.311750 -0.060000
v 0.302250 0.213906 -0.060000
v 0.205000 0.093000 -0.060000
v 0.466000 0.093000 -0.060000
v 0.466000 -0.000000 -0.060000
v 0.034000 -0.000000 -0.060000
v 0.014000 -0.020000 -0.040000
v 0.034000 0.007000 -0.060000
v 0.014000 0.014172 -0.040000
v 0.094516 0.080531 -0.060000
v 0.078984 0.093132 -0.040000
v 0.158875 0.161000 -0.060000
v 0.143047 0.173230 -0.040000
v 0.220047 0.242969 -0.060000
v 0.203644 0.254428 -0.040000
v 0.271000 0.321000 -0.060000
v 0.253851 0.331318 -0.040000
v 0.292000 0.359000 -0.060000
v 0.274050 0.367867 -0.040000
v 0.307000 0.393250 -0.060000
v 0.288043 0.399819 -0.040000
v 0.316000 0.427875 -0.060000
v 0.296195 0.431181 -0.040000
v 0.319000 0.467000 -0.060000
v 0.298869 0.466059 -0.040000
v 0.310141 0.518641 -0.060000
v 0.291070 0.511523 -0.040000
v 0.285625 0.559125 -0.060000
v 0.270656 0.545234 -0.040000
v 0.248547 0.585547 -0.060000
v 0.240401 0.566793 -0.040000
v 0.202000 0.595000 -0.060000
v 0.201205 0.574753 -0.040000
v 0.165000 0.590469 -0.060000
v 0.170040 0.570937 -0.040000
v 0.127250 0.575250 -0.060000
v 0.137029 0.557628 -0.040000
v 0.088375 0.546906 -0.060000
v 0.101757 0.531912 -0.040000
v 0.048000 0.503000 -0.060000
v 0.028000 0.451704 -0.040000
v 0.048000 0.626000 -0.060000
v 0.028000 0.636354 -0.040000
v 0.088625 0.654719 -0.060000
v 0.078265 0.671888 -0.040000
v 0.128500 0.675000 -0.060000
v 0.121019 0.693633 -0.040000
v 0.168375 0.687031 -0.060000
v 0.164477 0.706746 -0.040000
v 0.209000 0.691000 -0.060000
v 0.209858 0.711179 -0.040000
v 0.293391 0.675438 -0.060000
v 0.301048 0.694363 -0.040000
v 0.359125 0.631750 -0.060000
v 0.373739 0.646052 -0.040000
v 0.401797 0.564438 -0.060000
v 0.420809 0.571802 -0.040000
v 0.417000 0.478000 -0.060000
v 0.437252 0.478314 -0.040000
v 0.405250 0.396469 -0.060000
v 0.424656 0.390916 -0.040000
v 0.368000 0.311750 -0.060000
v 0.385592 0.302072 -0.040000
v 0.302250 0.213906 -0.060000
v 0.318372 0.202039 -0.040000
v 0.205000 0.093000 -0.060000
v 0.246754 0.113000 -0.040000
v 0.466000 0.093000 -0.060000
v 0.486000 0.113000 -0.040000
v 0.466000 -0.000000 -0.060000
v 0.486000 -0.020000 -0.040000
v 0.014000 -0.020000 -0.040000
v 0.014000 -0.020000 0.040000
v 0.014000 0.014172 -0.040000
v 0.014000 0.014172 0.040000
v 0.078984 0.093132 -0.040000
v 0.078984 0.093132 0.040000
v 0.143047 0.173230 -0.040000
v 0.143047 0.173230 0.040000
v 0.203644 0.254428 -0.040000
v 0.203644 0.254428 0.040000
v 0.253851 0.331318 -0.040000
v 0.253851 0.331318 0.040000
v 0.274050 0.367867 -0.040000
v 0.274050 0.367867 0.040000
v 0.288043 0.399819 -0.040000
v 0.288043 0.399819 0.040000
v 0.296195 0.431181 -0.040000
v 0.296195 0.431181 0.040000
v 0.298869 0.466059 -0.040000
v 0.298869 0.466059 0.040000
v 0.291070 0.511523 -0.040000
v 0.291070 0.511523 0.040000
v 0.270656 0.545234 -0.040000
v 0.270656 0.545234 0.040000
v 0.240401 0.566793 -0.040000
v 0.240401 0.566793 0.040000
v 0.201205 0.574753 -0.040000
v 0.201205 0.574753 0.040000
v 0.170040 0.570937 -0.040000
v 0.170040 0.570937 0.040000
v 0.137029 0.557628 -0.040000
v 0.137029 0.557628 0.040000
v 0.101757 0.531912 -0.040000
v 0.101757 0.531912 0.040000
v 0.028000 0.451704 -0.040000
v 0.028000 0.451704 0.040000
v 0.028000 0.636354 -0.040000
v 0.028000 0.636354 0.040000
v 0.078265 0.671888 -0.040000
v 0.078265 0.671888 0.040000
v 0.121019 0.693633 -0.040000
v 0.121019 0.693633 0.040000
v 0.164477 0.706746 -0.040000
v 0.164477 0.706746 0.040000
v 0.209858 0.711179 -0.040000
v 0.209858 0.711179 0.040000
v 0.301048 0.694363 -0.040000
v 0.301048 0.694363 0.040000
v 0.373739 0.646052 -0.040000
v 0.373739 0.646052 0.040000
v 0.420809 0.571802 -0.040000
v 0.420809 0.571802 0.040000
v 0.437252 0.478314 -0.040000
v 0.437252 0.478314 0.040000
v 0.424656 0.390916 -0.040000
v 0.424656 0.390916 0.040000
v 0.385592 0.302072 -0.040000
v 0.385592 0.302072 0.040000
v 0.318372 0.202039 -0.040000
v 0.318372 0.202039 0.040000
v 0.246754 0.113000 -0.040000
v 0.246754 0.113000 0.040000
v 0.486000 0.113000 -0.040000
v 0.486000 0.113000 0.040000
v 0.486000 -0.020000 -0.040000
v 0.486000 -0.020000 0.040000
v 0.014000 -0.020000 0.040000
v 0.034000 0.000000 0.060000
v 0.014000 0.014172 0.040000
v 0.034000 0.007000 0.060000
v 0.078984 0.093132 0.040000
v 0.094516 0.080531 0.060000
v 0.143047 0.173230 0.040000
v 0.158875 0.161000 0.060000
v 0.203644 0.254428 0.040000
v 0.220047 0.242969 0.060000
v 0.253851 0.331318 0.040000
v 0.271000 0.321000 0.060000
v 0.274050 0.367867 0.040000
v 0.292000 0.359000 0.060000
v 0.288043 0.399819 0.040000
v 0.307000 0.393250 0.060000
v 0.296195 0.431181 0.040000
v 0.316000 0.427875 0.060000
v 0.298869 0.466059 0.040000
v 0.319000 0.467000 0.060000
v 0.291070 0.511523 0.040000
v 0.310141 0.518641 0.060000
v 0.270656 0.545234 0.040000
v 0.285625 0.559125 0.060000
v 0.240401 0.566793 0.040000
v 0.248547 0.585547 0.060000
v 0.201205 0.574753 0.040000
v 0.202000 0.595000 0.060000
v 0.170040 0.570937 0.040000
v 0.165000 0.590469 0.060000
v 0.137029 0.557628 0.040000
v 0.127250 0.575250 0.060000
v 0.101757 0.531912 0.040000
v 0.088375 0.546906 0.060000
v 0.028000 0.451704 0.040000
v 0.048000 0.503000 0.060000
v 0.028000 0.636354 0.040000
v 0.048000 0.626000 0.060000
v 0.078265 0.671888 0.040000
v 0.088625 0.654719 0.060000
v 0.121019 0.693633 0.040000
v 0.128500 0.675000 0.060000
v 0.164477 0.706746 0.040000
v 0.168375 0.687031 0.060000
v 0.209858 0.711179 0.040000
v 0.209000 0.691000 0.060000
v 0.301048 0.694363 0.040000
v 0.293391 0.675438 0.060000
v 0.373739 0.646052 0.040000
v 0.359125 0.631750 0.060000
v 0.420809 0.571802 0.040000
v 0.401797 0.564438 0.060000
v 0.437252 0.478314 0.040000
v 0.417000 0.478000 0.060000
v 0.424656 0.390916 0.040000
v 0.405250 0.396469 0.060000
v 0.385592 0.302072 0.040000
v 0.368000 0.311750 0.060000
v 0.318372 0.202039 0.040000
v 0.302250 0.213906 0.060000
v 0.246754 0.113000 0.040000
v 0.205000 0.093000 0.060000
v 0.486000 0.113000 0.040000
v 0.466000 0.093000 0.060000
v 0.486000 -0.020000 0.040000
v 0.466000 0.000000 0.060000
vt 0.656250 0.000000
vt 0.718750 0.000000
vt 0.687500 0.000000
vt 0.625000 0.000000
vt 0.750000 0.000000
vt 0.593750 0.000000
vt 0.562500 0.000000
vt 0.781250 0.000000
vt 0.531250 0.000000
vt 0.500000 0.000000
vt 0.468750 0.000000
vt 0.437500 0.000000
vt 0.406250 0.000000
vt 0.375000 0.000000
vt 0.343750 0.000000
vt 0.812500 0.000000
vt 0.312500 0.000000
vt 0.281250 0.000000
vt 0.843750 0.000000
vt 0.250000 0.000000
vt 0.218750 0.000000
vt 0.875000 0.000000
vt 0.187500 0.000000
vt 0.156250 0.000000
vt 0.125000 0.000000
vt 0.906250 0.000000
vt 0.093750 0.000000
vt 0.937500 0.000000
vt 0.062500 0.000000
vt 0.968750 0.000000
vt 1.000000 0.000000
vt 0.031250 0.000000
vt 0.000000 0.000000
vt 0.000000 1.000000
vt 0.031250 1.000000
vt 0.062500 1.000000
vt 0.093750 1.000000
vt 0.125000 1.000000
vt 0.156250 1.000000
vt 0.187500 1.000000
vt 0.218750 1.000000
vt 0.250000 1.000000
vt 0.281250 1.000000
vt 0.312500 1.000000
vt 0.343750 1.000000
vt 0.375000 1.000000
vt 0.406250 1.000000
vt 0.437500 1.000000
vt 0.468750 1.000000
vt 0.500000 1.000000
vt 0.531250 1.000000
vt 0.562500 1.000000
vt 0.593750 1.000000
vt 0.625000 1.000000
vt 0.656250 1.000000
vt 0.687500 1.000000
vt 0.718750 1.000000
vt 0.750000 1.000000
vt 0.781250 1.000000
vt 0.812500 1.000000
vt 0.843750 1.000000
vt 0.875000 1.000000
vt 0.906250 1.000000
vt 0.937500 1.000000
vt 0.968750 1.000000
vt 1.000000 1.000000
vn 0.000000 0.000000 1.000000
vn 0.000000 0.000000 -1.000000
vn -0.408248 -0.408248 -0.816497
vn -0.645190 0.231355 -0.728151
vn -0.549102 0.445505 -0.707116
vn -0.559492 0.432318 -0.707157
vn -0.559492 0.432318 -0.707156
vn -0.579520 0.404860 -0.707280
vn -0.579520 0.404859 -0.707280
vn -0.605680 0.364435 -0.707346
vn -0.633637 0.313010 -0.707481
vn -0.633637 0.313009 -0.707481
vn -0.667085 0.231140 -0.708217
vn -0.696075 0.116202 -0.708503
vn -0.696074 0.116202 -0.708504
vn -0.703644 -0.032875 -0.709792
vn -0.656604 -0.245051 -0.713317
vn -0.512871 -0.475954 -0.714445
vn -0.278568 -0.641373 -0.714871
vn -0.278568 -0.641373 -0.714870
vn -0.027567 -0.701941 -0.711702
vn 0.175921 -0.681741 -0.710128
vn -0.027567 -0.701941 -0.711701
vn 0.341783 -0.615929 -0.709800
vn 0.175921 -0.681741 -0.710127
vn 0.469678 -0.526276 -0.708827
vn -0.124026 -0.318106 -0.939908
vn -0.589672 0.305283 -0.747723
vn -0.589672 0.305283 -0.747722
vn -0.364850 0.604626 -0.708034
vn -0.262929 0.654903 -0.708499
vn -0.136831 0.692011 -0.708800
vn -0.262928 0.654902 -0.708500
vn 0.029887 0.702993 -0.710569
vn -0.136831 0.692012 -0.708800
vn 0.262471 0.648712 -0.714340
vn 0.029887 0.702993 -0.710568
vn 0.499742 0.489075 -0.714887
vn 0.653002 0.252939 -0.713870
vn 0.702542 0.010881 -0.711559
vn 0.676684 -0.193623 -0.710358
vn 0.676685 -0.193623 -0.710358
vn 0.618315 -0.340170 -0.708499
vn 0.569207 -0.418980 -0.707432
vn 0.569206 -0.418980 -0.707432
vn 0.357661 0.171319 -0.918002
vn 0.408248 0.408248 -0.816497
vn 0.408248 -0.408248 -0.816497
vn -0.707107 -0.707107 0.000000
vn -0.941311 0.337540 -0.000000
vn -0.776557 0.630047 -0.000000
vn -0.791296 0.611433 0.000000
vn -0.819766 0.572698 0.000000
vn -0.856851 0.515564 0.000000
vn -0.896572 0.442897 0.000000
vn -0.944887 0.327397 0.000000
vn -0.896573 0.442897 0.000000
vn -0.986350 0.164662 0.000000
vn -0.944887 0.327396 0.000000
vn -0.998910 -0.046670 0.000000
vn -0.986350 0.164660 0.000000
vn -0.936880 -0.349652 0.000000
vn -0.998910 -0.046672 0.000000
vn -0.732996 -0.680233 0.000000
vn -0.936879 -0.349652 0.000000
vn -0.398377 -0.917222 0.000000
vn -0.039242 -0.999230 0.000000
vn 0.249861 -0.968282 0.000000
vn 0.485209 -0.874398 0.000000
vn 0.249862 -0.968282 0.000000
vn 0.665849 -0.746087 0.000000
vn 0.485210 -0.874398 0.000000
vn -0.363258 -0.931689 0.000000
vn -0.888045 0.459756 0.000000
vn -0.516654 0.856194 0.000000
vn -0.372572 0.928003 0.000000
vn -0.193974 0.981007 0.000000
vn 0.042476 0.999098 0.000000
vn 0.375066 0.926998 0.000000
vn 0.714694 0.699438 0.000000
vn 0.932489 0.361198 0.000000
vn 0.999880 0.015486 0.000000
vn 0.961417 -0.275096 0.000000
vn 0.876158 -0.482023 0.000000
vn 0.805350 -0.592800 0.000000
vn 0.901875 0.431998 0.000000
vn 0.707107 0.707107 0.000000
vn 0.707107 -0.707107 0.000000
vn -0.408249 -0.408248 0.816496
vn -0.645190 0.231356 0.728151
vn -0.408248 -0.408248 0.816497
vn -0.549102 0.445505 0.707115
vn -0.559492 0.432318 0.707156
vn -0.579520 0.404860 0.707280
vn -0.605680 0.364435 0.707346
vn -0.633637 0.313009 0.707481
vn -0.667085 0.231140 0.708217
vn -0.633637 0.313010 0.707481
vn -0.696074 0.116202 0.708504
vn -0.667085 0.231140 0.708218
vn -0.703644 -0.032875 0.709792
vn -0.696074 0.116203 0.708504
vn -0.656604 -0.245051 0.713317
vn -0.512872 -0.475954 0.714445
vn -0.278569 -0.641373 0.714870
vn -0.512871 -0.475954 0.714445
vn -0.027567 -0.701941 0.711701
vn -0.027567 -0.701941 0.711702
vn 0.175921 -0.681741 0.710127
vn 0.341783 -0.615929 0.709800
vn 0.469678 -0.526276 0.708827
vn 0.469678 -0.526276 0.708828
vn -0.124026 -0.318106 0.939908
vn -0.589673 0.305283 0.747722
vn -0.364850 0.604626 0.708034
vn -0.589672 0.305283 0.747722
vn -0.262928 0.654902 0.708500
vn -0.262929 0.654903 0.708499
vn -0.136831 0.692012 0.708800
vn -0.136831 0.692011 0.708800
vn 0.029887 0.702993 0.710568
vn 0.029887 0.702993 0.710569
vn 0.262471 0.648713 0.714339
vn 0.262471 0.648712 0.714340
vn 0.499742 0.489075 0.714887
vn 0.653002 0.252939 0.713870
vn 0.702542 0.010881 0.711559
vn 0.676685 -0.193623 0.710358
vn 0.618315 -0.340170 0.708499
vn 0.676684 -0.193623 0.710358
vn 0.569207 -0.418980 0.707431
vn 0.357661 0.171320 0.918002
vn 0.569207 -0.418980 0.707432
vn 0.408248 0.408248 0.816497
vn 0.408248 -0.408248 0.816497
vn -0.124026 -0.318106 -0.939907
vn -0.278568 -0.641373 0.714871
vn -0.364850 0.604627 0.708033
usemtl Material
s off
f 22/1/1 24/2/1 23/3/1
f 21/4/1 24/2/1 22/1/1
f 21/4/1 25/5/1 24/2/1
f 20/6/1 25/5/1 21/4/1
f 19/7/1 25/5/1 20/6/1
f 19/7/1 26/8/1 25/5/1
f 18/9/1 17/10/1 19/7/1
f 17/10/1 16/11/1 19/7/1
f 16/11/1 15/12/1 19/7/1
f 15/12/1 14/13/1 19/7/1
f 14/13/1 26/8/1 19/7/1
f 13/14/1 26/8/1 14/13/1
f 12/15/1 26/8/1 13/14/1
f 12/15/1 27/16/1 26/8/1
f 11/17/1 27/16/1 12/15/1
f 10/18/1 27/16/1 11/17/1
f 10/18/1 28/19/1 27/16/1
f 9/20/1 28/19/1 10/18/1
f 8/21/1 28/19/1 9/20/1
f 8/21/1 29/22/1 28/19/1
f 7/23/1 29/22/1 8/21/1
f 6/24/1 29/22/1 7/23/1
f 5/25/1 29/22/1 6/24/1
f 5/25/1 30/26/1 29/22/1
f 4/27/1 30/26/1 5/25/1
f 4/27/1 31/28/1 30/26/1
f 3/29/1 31/28/1 4/27/1
f 3/29/1 32/30/1 31/28/1
f 3/29/1 33/31/1 32/30/1
f 2/32/1 33/31/1 3/29/1
f 1/33/1 33/31/1 2/32/1
f 57/2/2 55/1/2 56/3/2
f 57/2/2 54/4/2 55/1/2
f 58/5/2 54/4/2 57/2/2
f 58/5/2 53/6/2 54/4/2
f 58/5/2 52/7/2 53/6/2
f 59/8/2 52/7/2 58/5/2
f 50/10/2 51/9/2 52/7/2
f 49/11/2 50/10/2 52/7/2
f 48/12/2 49/11/2 52/7/2
f 47/13/2 48/12/2 52/7/2
f 59/8/2 47/13/2 52/7/2
f 59/8/2 46/14/2 47/13/2
f 59/8/2 45/15/2 46/14/2
f 60/16/2 45/15/2 59/8/2
f 60/16/2 44/17/2 45/15/2
f 60/16/2 43/18/2 44/17/2
f 61/19/2 43/18/2 60/16/2
f 61/19/2 42/20/2 43/18/2
f 61/19/2 41/21/2 42/20/2
f 62/22/2 41/21/2 61/19/2
f 62/22/2 40/23/2 41/21/2
f 62/22/2 39/24/2 40/23/2
f 62/22/2 38/25/2 39/24/2
f 63/26/2 38/25/2 62/22/2
f 63/26/2 37/27/2 38/25/2
f 64/28/2 37/27/2 63/26/2
f 64/28/2 36/29/2 37/27/2
f 65/30/2 36/29/2 64/28/2
f 66/31/2 36/29/2 65/30/2
f 66/31/2 35/32/2 36/29/2
f 66/31/2 34/33/2 35/32/2
s 1
f 68/34/3 70/35/4 69/32/4
f 70/35/4 72/36/5 71/29/5
f 72/36/5 74/37/6 73/27/7
f 74/37/6 76/38/8 75/25/9
f 76/38/8 78/39/10 77/24/10
f 78/39/10 80/40/11 79/23/12
f 80/40/11 82/41/13 81/21/13
f 82/41/13 84/42/14 83/20/15
f 84/42/14 86/43/16 85/18/16
f 86/43/16 88/44/17 87/17/17
f 88/44/17 90/45/18 89/15/18
f 90/45/18 92/46/19 91/14/20
f 92/46/19 94/47/21 91/14/20
f 94/47/21 96/48/22 93/13/23
f 96/48/22 98/49/24 95/12/25
f 98/49/24 100/50/26 97/11/24
f 100/50/26 102/51/27 99/10/26
f 102/51/27 104/52/28 103/7/29
f 104/52/28 106/53/30 105/6/30
f 106/53/30 108/54/31 105/6/30
f 108/54/31 110/55/32 107/4/33
f 110/55/32 112/56/34 109/1/35
f 112/56/34 114/57/36 111/3/37
f 114/57/36 116/58/38 113/2/36
f 116/58/38 118/59/39 117/8/39
f 118/59/39 120/60/40 119/16/40
f 120/60/40 122/61/41 121/19/42
f 122/61/41 124/62/43 123/22/43
f 124/62/43 126/63/44 125/26/45
f 126/63/44 128/64/46 127/28/46
f 128/64/46 130/65/47 127/28/46
f 130/65/47 132/66/48 129/30/47
f 132/66/48 68/34/3 131/31/48
f 134/34/49 136/35/50 133/33/49
f 136/35/50 138/36/51 135/32/50
f 138/36/51 140/37/52 137/29/51
f 140/37/52 142/38/53 139/27/52
f 142/38/53 144/39/54 141/25/53
f 144/39/54 146/40/55 143/24/54
f 146/40/55 148/41/56 145/23/57
f 148/41/56 150/42/58 147/21/59
f 150/42/58 152/43/60 149/20/61
f 152/43/60 154/44/62 151/18/63
f 154/44/62 156/45/64 153/17/65
f 156/45/64 158/46/66 155/15/64
f 158/46/66 160/47/67 157/14/66
f 160/47/67 162/48/68 159/13/67
f 162/48/68 164/49/69 161/12/70
f 164/49/69 166/50/71 163/11/72
f 166/50/71 168/51/73 165/10/71
f 168/51/73 170/52/74 167/9/73
f 170/52/74 172/53/75 169/7/74
f 172/53/75 174/54/76 171/6/75
f 174/54/76 176/55/77 173/4/76
f 176/55/77 178/56/78 175/1/77
f 178/56/78 180/57/79 177/3/78
f 180/57/79 182/58/80 179/2/79
f 182/58/80 184/59/81 181/5/80
f 184/59/81 186/60/82 183/8/81
f 186/60/82 188/61/83 185/16/82
f 188/61/83 190/62/84 187/19/83
f 190/62/84 192/63/85 189/22/84
f 192/63/85 194/64/86 191/26/85
f 194/64/86 196/65/87 193/28/86
f 196/65/87 198/66/88 195/30/87
f 198/66/88 134/34/49 197/31/88
f 200/34/89 202/35/90 199/33/91
f 202/35/90 204/36/92 201/32/90
f 204/36/92 206/37/93 203/29/92
f 206/37/93 208/38/94 205/27/93
f 208/38/94 210/39/95 207/25/94
f 210/39/95 212/40/96 209/24/95
f 212/40/96 214/41/97 211/23/98
f 214/41/97 216/42/99 213/21/100
f 216/42/99 218/43/101 215/20/102
f 218/43/101 220/44/103 217/18/101
f 220/44/103 222/45/104 219/17/103
f 222/45/104 224/46/105 221/15/106
f 224/46/105 226/47/107 225/13/108
f 226/47/107 228/48/109 227/12/109
f 228/48/109 230/49/110 229/11/110
f 230/49/110 232/50/111 231/10/112
f 232/50/111 234/51/113 233/9/113
f 234/51/113 236/52/114 233/9/113
f 236/52/114 238/53/115 235/7/116
f 238/53/115 240/54/117 239/4/118
f 240/54/117 242/55/119 241/1/120
f 242/55/119 244/56/121 243/3/122
f 244/56/121 246/57/123 245/2/124
f 246/57/123 248/58/125 247/5/125
f 248/58/125 250/59/126 247/5/125
f 250/59/126 252/60/127 249/8/126
f 252/60/127 254/61/128 251/16/127
f 254/61/128 256/62/129 253/19/130
f 256/62/129 258/63/131 255/22/129
f 258/63/131 260/64/132 257/26/133
f 260/64/132 262/65/134 261/30/134
f 262/65/134 264/66/135 261/30/134
f 264/66/135 200/34/89 263/31/135
f 67/33/3 68/34/3 69/32/4
f 69/32/4 70/35/4 71/29/5
f 71/29/5 72/36/5 73/27/7
f 73/27/7 74/37/6 75/25/9
f 75/25/9 76/38/8 77/24/10
f 77/24/10 78/39/10 79/23/12
f 79/23/12 80/40/11 81/21/13
f 81/21/13 82/41/13 83/20/15
f 83/20/15 84/42/14 85/18/16
f 85/18/16 86/43/16 87/17/17
f 87/17/17 88/44/17 89/15/18
f 89/15/18 90/45/18 91/14/20
f 94/47/21 93/13/23 91/14/20
f 96/48/22 95/12/25 93/13/23
f 98/49/24 97/11/24 95/12/25
f 100/50/26 99/10/26 97/11/24
f 102/51/27 101/9/136 99/10/26
f 101/9/136 102/51/27 103/7/29
f 103/7/29 104/52/28 105/6/30
f 108/54/31 107/4/33 105/6/30
f 110/55/32 109/1/35 107/4/33
f 112/56/34 111/3/37 109/1/35
f 114/57/36 113/2/36 111/3/37
f 116/58/38 115/5/38 113/2/36
f 115/5/38 116/58/38 117/8/39
f 117/8/39 118/59/39 119/16/40
f 119/16/40 120/60/40 121/19/42
f 121/19/42 122/61/41 123/22/43
f 123/22/43 124/62/43 125/26/45
f 125/26/45 126/63/44 127/28/46
f 130/65/47 129/30/47 127/28/46
f 132/66/48 131/31/48 129/30/47
f 68/34/3 67/33/3 131/31/48
f 136/35/50 135/32/50 133/33/49
f 138/36/51 137/29/51 135/32/50
f 140/37/52 139/27/52 137/29/51
f 142/38/53 141/25/53 139/27/52
f 144/39/54 143/24/54 141/25/53
f 146/40/55 145/23/57 143/24/54
f 148/41/56 147/21/59 145/23/57
f 150/42/58 149/20/61 147/21/59
f 152/43/60 151/18/63 149/20/61
f 154/44/62 153/17/65 151/18/63
f 156/45/64 155/15/64 153/17/65
f 158/46/66 157/14/66 155/15/64
f 160/47/67 159/13/67 157/14/66
f 162/48/68 161/12/70 159/13/67
f 164/49/69 163/11/72 161/12/70
f 166/50/71 165/10/71 163/11/72
f 168/51/73 167/9/73 165/10/71
f 170/52/74 169/7/74 167/9/73
f 172/53/75 171/6/75 169/7/74
f 174/54/76 173/4/76 171/6/75
f 176/55/77 175/1/77 173/4/76
f 178/56/78 177/3/78 175/1/77
f 180/57/79 179/2/79 177/3/78
f 182/58/80 181/5/80 179/2/79
f 184/59/81 183/8/81 181/5/80
f 186/60/82 185/16/82 183/8/81
f 188/61/83 187/19/83 185/16/82
f 190/62/84 189/22/84 187/19/83
f 192/63/85 191/26/85 189/22/84
f 194/64/86 193/28/86 191/26/85
f 196/65/87 195/30/87 193/28/86
f 198/66/88 197/31/88 195/30/87
f 134/34/49 133/33/49 197/31/88
f 202/35/90 201/32/90 199/33/91
f 204/36/92 203/29/92 201/32/90
f 206/37/93 205/27/93 203/29/92
f 208/38/94 207/25/94 205/27/93
f 210/39/95 209/24/95 207/25/94
f 212/40/96 211/23/98 209/24/95
f 214/41/97 213/21/100 211/23/98
f 216/42/99 215/20/102 213/21/100
f 218/43/101 217/18/101 215/20/102
f 220/44/103 219/17/103 217/18/101
f 222/45/104 221/15/106 219/17/103
f 224/46/105 223/14/137 221/15/106
f 223/14/137 224/46/105 225/13/108
f 225/13/108 226/47/107 227/12/109
f 227/12/109 228/48/109 229/11/110
f 229/11/110 230/49/110 231/10/112
f 231/10/112 232/50/111 233/9/113
f 236/52/114 235/7/116 233/9/113
f 238/53/115 237/6/138 235/7/116
f 237/6/138 238/53/115 239/4/118
f 239/4/118 240/54/117 241/1/120
f 241/1/120 242/55/119 243/3/122
f 243/3/122 244/56/121 245/2/124
f 245/2/124 246/57/123 247/5/125
f 250/59/126 249/8/126 247/5/125
f 252/60/127 251/16/127 249/8/126
f 254/61/128 253/19/130 251/16/127
f 256/62/129 255/22/129 253/19/130
f 258/63/131 257/26/133 255/22/129
f 260/64/132 259/28/132 257/26/133
f 259/28/132 260/64/132 261/30/134
f 264/66/135 263/31/135 261/30/134
f 200/34/89 199/33/91 263/31/135
