# Blender v2.69 (sub 0) OBJ File: 'Digits.blend'
# www.blender.org
mtllib Digit5.mtl
o Digit_Text
v 0.190000 0.594000 0.060000
v 0.190000 0.423000 0.060000
v 0.293719 0.411078 0.060000
v 0.371750 0.366625 0.060000
v 0.420906 0.296859 0.060000
v 0.438000 0.209000 0.060000
v 0.421297 0.121781 0.060000
v 0.374875 0.052750 0.060000
v 0.304266 0.007344 0.060000
v 0.215000 -0.009000 0.060000
v 0.172625 -0.006656 0.060000
v 0.132500 0.000750 0.060000
v 0.092375 0.013781 0.060000
v 0.050000 0.033000 0.060000
v 0.050000 0.134000 0.060000
v 0.086922 0.112266 0.060000
v 0.124125 0.096625 0.060000
v 0.161516 0.087172 0.060000
v 0.199000 0.084000 0.060000
v 0.253516 0.093797 0.060000
v 0.298375 0.120375 0.060000
v 0.328797 0.159516 0.060000
v 0.340000 0.207000 0.060000
v 0.323750 0.267516 0.060000
v 0.276750 0.313125 0.060000
v 0.201625 0.335672 0.060000
v 0.101000 0.327000 0.060000
v 0.101000 0.682000 0.060000
v 0.404000 0.682000 0.060000
v 0.404000 0.594000 0.060000
v 0.190000 0.594000 -0.060000
v 0.190000 0.423000 -0.060000
v 0.293719 0.411078 -0.060000
v 0.371750 0.366625 -0.060000
v 0.420906 0.296859 -0.060000
v 0.438000 0.209000 -0.060000
v 0.421297 0.121781 -0.060000
v 0.374875 0.052750 -0.060000
v 0.304266 0.007344 -0.060000
v 0.215000 -0.009000 -0.060000
v 0.172625 -0.006656 -0.060000
v 0.132500 0.000750 -0.060000
v 0.092375 0.013781 -0.060000
v 0.050000 0.033000 -0.060000
v 0.050000 0.134000 -0.060000
v 0.086922 0.112266 -0.060000
v 0.124125 0.096625 -0.060000
v 0.161516 0.087172 -0.060000
v 0.199000 0.084000 -0.060000
v 0.253516 0.093797 -0.060000
v 0.298375 0.120375 -0.060000
v 0.328797 0.159516 -0.060000
v 0.340000 0.207000 -0.060000
v 0.323750 0.267516 -0.060000
v 0.276750 0.313125 -0.060000
v 0.201625 0.335672 -0.060000
v 0.101000 0.327000 -0.060000
v 0.101000 0.682000 -0.060000
v 0.404000 0.682000 -0.060000
v 0.404000 0.594000 -0.060000
v 0.190000 0.594000 -0.060000
v 0.210000 0.574000 -0.040000
v 0.190000 0.423000 -0.060000
v 0.210000 0.440833 -0.040000
v 0.293719 0.411078 -0.060000
v 0.300065 0.430480 -0.040000
v 0.371750 0.366625 -0.060000
v 0.385528 0.381793 -0.040000
v 0.420906 0.296859 -0.060000
v 0.439721 0.304880 -0.040000
v 0.438000 0.209000 -0.060000
v 0.458369 0.209030 -0.040000
v 0.421297 0.121781 -0.060000
v 0.440172 0.114009 -0.040000
v 0.374875 0.052750 -0.060000
v 0.389167 0.038162 -0.040000
v 0.304266 0.007344 -0.060000
v 0.311757 -0.011617 -0.040000
v 0.215000 -0.009000 -0.060000
v 0.216266 -0.029101 -0.040000
v 0.172625 -0.006656 -0.060000
v 0.170248 -0.026555 -0.040000
v 0.132500 0.000750 -0.060000
v 0.127575 -0.018679 -0.040000
v 0.092375 0.013781 -0.060000
v 0.085133 -0.004895 -0.040000
v 0.050000 0.033000 -0.060000
v 0.030000 0.020110 -0.040000
v 0.050000 0.134000 -0.060000
v 0.030000 0.168981 -0.040000
v 0.086922 0.112266 -0.060000
v 0.095911 0.130182 -0.040000
v 0.124125 0.096625 -0.060000
v 0.130488 0.115646 -0.040000
v 0.161516 0.087172 -0.060000
v 0.164832 0.106963 -0.040000
v 0.199000 0.084000 -0.060000
v 0.198058 0.104151 -0.040000
v 0.253516 0.093797 -0.060000
v 0.246426 0.112843 -0.040000
v 0.298375 0.120375 -0.060000
v 0.284914 0.135646 -0.040000
v 0.328797 0.159516 -0.060000
v 0.310332 0.168349 -0.040000
v 0.340000 0.207000 -0.060000
v 0.319376 0.206684 -0.040000
v 0.323750 0.267516 -0.060000
v 0.305864 0.257003 -0.040000
v 0.276750 0.313125 -0.060000
v 0.266325 0.295372 -0.040000
v 0.201625 0.335672 -0.060000
v 0.199535 0.315418 -0.040000
v 0.101000 0.327000 -0.060000
v 0.081000 0.305202 -0.040000
v 0.101000 0.682000 -0.060000
v 0.081000 0.702000 -0.040000
v 0.404000 0.682000 -0.060000
v 0.424000 0.702000 -0.040000
v 0.404000 0.594000 -0.060000
v 0.424000 0.574000 -0.040000
v 0.210000 0.574000 -0.040000
v 0.210000 0.574000 0.040000
v 0.210000 0.440833 -0.040000
v 0.210000 0.440833 0.040000
v 0.300065 0.430480 -0.040000
v 0.300065 0.430480 0.040000
v 0.385528 0.381793 -0.040000
v 0.385528 0.381793 0.040000
v 0.439721 0.304880 -0.040000
v 0.439721 0.304880 0.040000
v 0.458369 0.209030 -0.040000
v 0.458369 0.209030 0.040000
v 0.440172 0.114009 -0.040000
v 0.440172 0.114009 0.040000
v 0.389167 0.038162 -0.040000
v 0.389167 0.038162 0.040000
v 0.311757 -0.011617 -0.040000
v 0.311757 -0.011617 0.040000
v 0.216266 -0.029101 -0.040000
v 0.216266 -0.029101 0.040000
v 0.170248 -0.026555 -0.040000
v 0.170248 -0.026555 0.040000
v 0.127575 -0.018679 -0.040000
v 0.127575 -0.018679 0.040000
v 0.085133 -0.004895 -0.040000
v 0.085133 -0.004895 0.040000
v 0.030000 0.020110 -0.040000
v 0.030000 0.020110 0.040000
v 0.030000 0.168981 -0.040000
v 0.030000 0.168981 0.040000
v 0.095911 0.130182 -0.040000
v 0.095911 0.130182 0.040000
v 0.130488 0.115646 -0.040000
v 0.130488 0.115646 0.040000
v 0.164832 0.106963 -0.040000
v 0.164832 0.106963 0.040000
v 0.198058 0.104151 -0.040000
v 0.198058 0.104151 0.040000
v 0.246426 0.112843 -0.040000
v 0.246426 0.112843 0.040000
v 0.284914 0.135646 -0.040000
v 0.284914 0.135646 0.040000
v 0.310332 0.168349 -0.040000
v 0.310332 0.168349 0.040000
v 0.319376 0.206684 -0.040000
v 0.319376 0.206684 0.040000
v 0.305864 0.257003 -0.040000
v 0.305864 0.257003 0.040000
v 0.266325 0.295372 -0.040000
v 0.266325 0.295372 0.040000
v 0.199535 0.315418 -0.040000
v 0.199535 0.315418 0.040000
v 0.081000 0.305202 -0.040000
v 0.081000 0.305202 0.040000
v 0.081000 0.702000 -0.040000
v 0.081000 0.702000 0.040000
v 0.424000 0.702000 -0.040000
v 0.424000 0.702000 0.040000
v 0.424000 0.574000 -0.040000
v 0.424000 0.574000 0.040000
v 0.210000 0.574000 0.040000
v 0.190000 0.594000 0.060000
v 0.210000 0.440833 0.040000
v 0.190000 0.423000 0.060000
v 0.300065 0.430480 0.040000
v 0.293719 0.411078 0.060000
v 0.385528 0.381793 0.040000
v 0.371750 0.366625 0.060000
v 0.439721 0.304880 0.040000
v 0.420906 0.296859 0.060000
v 0.458369 0.209030 0.040000
v 0.438000 0.209000 0.060000
v 0.440172 0.114009 0.040000
v 0.421297 0.121781 0.060000
v 0.389167 0.038162 0.040000
v 0.374875 0.052750 0.060000
v 0.311757 -0.011617 0.040000
v 0.304266 0.007344 0.060000
v 0.216266 -0.029101 0.040000
v 0.215000 -0.009000 0.060000
v 0.170248 -0.026555 0.040000
v 0.172625 -0.006656 0.060000
v 0.127575 -0.018679 0.040000
v 0.132500 0.000750 0.060000
v 0.085133 -0.004895 0.040000
v 0.092375 0.013781 0.060000
v 0.030000 0.020110 0.040000
v 0.050000 0.033000 0.060000
v 0.030000 0.168981 0.040000
v 0.050000 0.134000 0.060000
v 0.095911 0.130182 0.040000
v 0.086922 0.112266 0.060000
v 0.130488 0.115646 0.040000
v 0.124125 0.096625 0.060000
v 0.164832 0.106963 0.040000
v 0.161516 0.087172 0.060000
v 0.198058 0.104151 0.040000
v 0.199000 0.084000 0.060000
v 0.246426 0.112843 0.040000
v 0.253516 0.093797 0.060000
v 0.284914 0.135646 0.040000
v 0.298375 0.120375 0.060000
v 0.310332 0.168349 0.040000
v 0.328797 0.159516 0.060000
v 0.319376 0.206684 0.040000
v 0.340000 0.207000 0.060000
v 0.305864 0.257003 0.040000
v 0.323750 0.267516 0.060000
v 0.266325 0.295372 0.040000
v 0.276750 0.313125 0.060000
v 0.199535 0.315418 0.040000
v 0.201625 0.335672 0.060000
v 0.081000 0.305202 0.040000
v 0.101000 0.327000 0.060000
v 0.081000 0.702000 0.040000
v 0.101000 0.682000 0.060000
v 0.424000 0.702000 0.040000
v 0.404000 0.682000 0.060000
v 0.424000 0.574000 0.040000
v 0.404000 0.594000 0.060000
vt 0.896552 0.000000
vt 0.000000 0.000000
vt 0.931035 0.000000
vt 0.965517 0.000000
vt 1.000000 0.000000
vt 0.034483 0.000000
vt 0.068966 0.000000
vt 0.103448 0.000000
vt 0.862069 0.000000
vt 0.137931 0.000000
vt 0.827586 0.000000
vt 0.793103 0.000000
vt 0.172414 0.000000
vt 0.758621 0.000000
vt 0.206897 0.000000
vt 0.724138 0.000000
vt 0.689655 0.000000
vt 0.448276 0.000000
vt 0.517241 0.000000
vt 0.482759 0.000000
vt 0.241379 0.000000
vt 0.655172 0.000000
vt 0.551724 0.000000
vt 0.586207 0.000000
vt 0.620690 0.000000
vt 0.275862 0.000000
vt 0.413793 0.000000
vt 0.379310 0.000000
vt 0.310345 0.000000
vt 0.344828 0.000000
vt 0.000000 1.000000
vt 0.034483 1.000000
vt 0.068966 1.000000
vt 0.103448 1.000000
vt 0.137931 1.000000
vt 0.172414 1.000000
vt 0.206897 1.000000
vt 0.241379 1.000000
vt 0.275862 1.000000
vt 0.310345 1.000000
vt 0.344828 1.000000
vt 0.379310 1.000000
vt 0.413793 1.000000
vt 0.448276 1.000000
vt 0.482759 1.000000
vt 0.517241 1.000000
vt 0.551724 1.000000
vt 0.586207 1.000000
vt 0.620690 1.000000
vt 0.655172 1.000000
vt 0.689655 1.000000
vt 0.724138 1.000000
vt 0.758621 1.000000
vt 0.793103 1.000000
vt 0.827586 1.000000
vt 0.862069 1.000000
vt 0.896552 1.000000
vt 0.931035 1.000000
vt 0.965517 1.000000
vt 1.000000 1.000000
vn -0.000000 0.000000 1.000000
vn 0.000000 -0.000000 -1.000000
vn 0.408248 -0.408249 -0.816496
vn 0.446450 0.398074 -0.801386
vn 0.217575 0.665149 -0.714309
vn 0.446450 0.398073 -0.801386
vn 0.469629 0.517009 -0.715647
vn 0.217575 0.665149 -0.714310
vn 0.643143 0.274178 -0.714978
vn 0.700610 0.001030 -0.713544
vn 0.647135 -0.266474 -0.714288
vn 0.489648 -0.499806 -0.714450
vn 0.257336 -0.651301 -0.713853
vn 0.044303 -0.703234 -0.709577
vn -0.083785 -0.701404 -0.707823
vn -0.083784 -0.701404 -0.707823
vn -0.173569 -0.684684 -0.707871
vn -0.255440 -0.658764 -0.707659
vn -0.540841 -0.348574 -0.765498
vn -0.220668 0.385961 -0.895734
vn 0.316731 0.631314 -0.707901
vn 0.223996 0.669635 -0.708106
vn 0.116664 0.696220 -0.708284
vn 0.116664 0.696220 -0.708285
vn -0.032865 0.703285 -0.710148
vn -0.244688 0.657356 -0.712749
vn -0.244687 0.657357 -0.712749
vn -0.463414 0.525734 -0.713338
vn -0.463414 0.525735 -0.713338
vn -0.630439 0.301590 -0.715256
vn -0.696045 -0.010665 -0.717918
vn -0.696045 -0.010665 -0.717919
vn -0.598339 -0.351684 -0.719937
vn -0.598339 -0.351683 -0.719937
vn -0.352845 -0.600863 -0.717261
vn -0.071911 -0.697042 -0.713415
vn -0.352845 -0.600863 -0.717262
vn -0.378653 -0.412689 -0.828438
vn -0.408248 0.408247 -0.816497
vn -0.408248 0.408248 -0.816497
vn 0.408249 0.408248 -0.816497
vn 0.408248 -0.408248 -0.816497
vn 0.408248 0.408248 -0.816497
vn 0.707107 -0.707107 0.000000
vn 0.746389 0.665510 0.000000
vn 0.310896 0.950444 0.000000
vn 0.672375 0.740211 0.000000
vn 0.919897 0.392161 0.000000
vn 0.999999 0.001470 0.000000
vn 0.919897 0.392160 0.000000
vn 0.924675 -0.380758 0.000000
vn 0.699811 -0.714328 0.000000
vn 0.367467 -0.930036 0.000000
vn 0.062875 -0.998021 0.000000
vn 0.367467 -0.930037 0.000000
vn -0.118609 -0.992941 0.000000
vn -0.245730 -0.969338 0.000000
vn -0.361529 -0.932361 0.000000
vn -0.840549 -0.541736 0.000000
vn -0.496341 0.868128 0.000000
vn 0.448430 0.893818 0.000000
vn 0.317228 0.948349 0.000000
vn 0.165263 0.986250 0.000000
vn 0.317227 0.948349 0.000000
vn -0.046679 0.998910 0.000000
vn -0.348846 0.937180 0.000000
vn -0.661245 0.750170 0.000000
vn -0.902092 0.431544 0.000000
vn -0.999883 -0.015320 0.000000
vn -0.862111 -0.506719 0.000000
vn -0.999883 -0.015321 0.000000
vn -0.506377 -0.862312 0.000000
vn -0.102621 -0.994721 0.000000
vn -0.506376 -0.862313 0.000000
vn -0.676069 -0.736839 0.000000
vn -0.707107 0.707107 0.000000
vn 0.707107 0.707107 0.000000
vn 0.408248 -0.408249 0.816496
vn 0.446450 0.398073 0.801386
vn 0.446450 0.398074 0.801386
vn 0.217574 0.665149 0.714310
vn 0.217575 0.665149 0.714309
vn 0.469629 0.517010 0.715646
vn 0.643143 0.274178 0.714978
vn 0.700610 0.001030 0.713544
vn 0.647135 -0.266473 0.714289
vn 0.647135 -0.266474 0.714289
vn 0.489648 -0.499806 0.714450
vn 0.257336 -0.651301 0.713853
vn 0.044303 -0.703234 0.709577
vn -0.083784 -0.701403 0.707823
vn -0.173569 -0.684684 0.707871
vn -0.255440 -0.658763 0.707659
vn -0.540841 -0.348574 0.765498
vn -0.220668 0.385961 0.895734
vn 0.316731 0.631314 0.707901
vn 0.223996 0.669635 0.708106
vn 0.116664 0.696220 0.708284
vn -0.032865 0.703285 0.710148
vn 0.116664 0.696221 0.708284
vn -0.244688 0.657357 0.712748
vn -0.463414 0.525735 0.713337
vn -0.630439 0.301590 0.715256
vn -0.696045 -0.010664 0.717919
vn -0.630439 0.301590 0.715255
vn -0.598339 -0.351683 0.719937
vn -0.352845 -0.600863 0.717261
vn -0.071911 -0.697042 0.713415
vn -0.378653 -0.412688 0.828438
vn -0.378653 -0.412689 0.828438
vn -0.408248 0.408248 0.816497
vn 0.408248 0.408248 0.816497
vn 0.408248 -0.408248 0.816497
vn 0.469628 0.517009 -0.715647
vn 0.489648 -0.499805 -0.714450
vn -0.220668 0.385960 -0.895734
vn -0.255440 -0.658764 0.707659
vn -0.598339 -0.351684 0.719937
usemtl Material
s off
f 27/1/1 1/2/1 28/3/1
f 1/2/1 29/4/1 28/3/1
f 1/2/1 30/5/1 29/4/1
f 27/1/1 2/6/1 1/2/1
f 27/1/1 3/7/1 2/6/1
f 27/1/1 4/8/1 3/7/1
f 27/1/1 26/9/1 4/8/1
f 26/9/1 5/10/1 4/8/1
f 25/11/1 5/10/1 26/9/1
f 24/12/1 5/10/1 25/11/1
f 24/12/1 6/13/1 5/10/1
f 23/14/1 6/13/1 24/12/1
f 23/14/1 7/15/1 6/13/1
f 22/16/1 7/15/1 23/14/1
f 21/17/1 7/15/1 22/16/1
f 14/18/1 16/19/1 15/20/1
f 21/17/1 8/21/1 7/15/1
f 20/22/1 8/21/1 21/17/1
f 14/18/1 17/23/1 16/19/1
f 14/18/1 18/24/1 17/23/1
f 19/25/1 8/21/1 20/22/1
f 14/18/1 19/25/1 18/24/1
f 14/18/1 8/21/1 19/25/1
f 14/18/1 9/26/1 8/21/1
f 13/27/1 9/26/1 14/18/1
f 12/28/1 9/26/1 13/27/1
f 12/28/1 10/29/1 9/26/1
f 11/30/1 10/29/1 12/28/1
f 31/2/2 57/1/2 58/3/2
f 59/4/2 31/2/2 58/3/2
f 60/5/2 31/2/2 59/4/2
f 32/6/2 57/1/2 31/2/2
f 33/7/2 57/1/2 32/6/2
f 34/8/2 57/1/2 33/7/2
f 56/9/2 57/1/2 34/8/2
f 35/10/2 56/9/2 34/8/2
f 35/10/2 55/11/2 56/9/2
f 35/10/2 54/12/2 55/11/2
f 36/13/2 54/12/2 35/10/2
f 36/13/2 53/14/2 54/12/2
f 37/15/2 53/14/2 36/13/2
f 37/15/2 52/16/2 53/14/2
f 37/15/2 51/17/2 52/16/2
f 46/19/2 44/18/2 45/20/2
f 38/21/2 51/17/2 37/15/2
f 38/21/2 50/22/2 51/17/2
f 47/23/2 44/18/2 46/19/2
f 48/24/2 44/18/2 47/23/2
f 38/21/2 49/25/2 50/22/2
f 49/25/2 44/18/2 48/24/2
f 38/21/2 44/18/2 49/25/2
f 39/26/2 44/18/2 38/21/2
f 39/26/2 43/27/2 44/18/2
f 39/26/2 42/28/2 43/27/2
f 40/29/2 42/28/2 39/26/2
f 40/29/2 41/30/2 42/28/2
s 1
f 62/31/3 64/32/4 61/2/3
f 64/32/4 66/33/5 63/6/6
f 66/33/5 68/34/7 65/7/8
f 68/34/7 70/35/9 69/10/9
f 70/35/9 72/36/10 71/13/10
f 72/36/10 74/37/11 71/13/10
f 74/37/11 76/38/12 73/15/11
f 76/38/12 78/39/13 77/26/13
f 78/39/13 80/40/14 79/29/14
f 80/40/14 82/41/15 81/30/16
f 82/41/15 84/42/17 81/30/16
f 84/42/17 86/43/18 85/27/18
f 86/43/18 88/44/19 85/27/18
f 88/44/19 90/45/20 87/18/19
f 90/45/20 92/46/21 91/19/21
f 92/46/21 94/47/22 93/23/22
f 94/47/22 96/48/23 95/24/24
f 96/48/23 98/49/25 97/25/25
f 98/49/25 100/50/26 99/22/27
f 100/50/26 102/51/28 101/17/29
f 102/51/28 104/52/30 103/16/30
f 104/52/30 106/53/31 105/14/32
f 106/53/31 108/54/33 107/12/34
f 108/54/33 110/55/35 107/12/34
f 110/55/35 112/56/36 109/11/37
f 112/56/36 114/57/38 111/9/36
f 114/57/38 116/58/39 115/3/40
f 116/58/39 118/59/41 115/3/40
f 118/59/41 120/60/42 117/4/43
f 120/60/42 62/31/3 61/2/3
f 122/31/44 124/32/45 121/2/44
f 124/32/45 126/33/46 123/6/45
f 126/33/46 128/34/47 125/7/46
f 128/34/47 130/35/48 127/8/47
f 130/35/48 132/36/49 129/10/50
f 132/36/49 134/37/51 131/13/49
f 134/37/51 136/38/52 133/15/51
f 136/38/52 138/39/53 135/21/52
f 138/39/53 140/40/54 137/26/55
f 140/40/54 142/41/56 139/29/54
f 142/41/56 144/42/57 141/30/56
f 144/42/57 146/43/58 143/28/57
f 146/43/58 148/44/59 145/27/58
f 148/44/59 150/45/60 147/18/59
f 150/45/60 152/46/61 149/20/60
f 152/46/61 154/47/62 151/19/61
f 154/47/62 156/48/63 153/23/64
f 156/48/63 158/49/65 155/24/63
f 158/49/65 160/50/66 157/25/65
f 160/50/66 162/51/67 159/22/66
f 162/51/67 164/52/68 161/17/67
f 164/52/68 166/53/69 163/16/68
f 166/53/69 168/54/70 165/14/71
f 168/54/70 170/55/72 167/12/70
f 170/55/72 172/56/73 169/11/74
f 172/56/73 174/57/75 171/9/73
f 174/57/75 176/58/76 173/1/75
f 176/58/76 178/59/77 175/3/76
f 178/59/77 180/60/44 177/4/77
f 180/60/44 122/31/44 179/5/44
f 182/31/78 184/32/79 183/6/80
f 184/32/79 186/33/81 185/7/82
f 186/33/81 188/34/83 187/8/83
f 188/34/83 190/35/84 187/8/83
f 190/35/84 192/36/85 189/10/84
f 192/36/85 194/37/86 193/15/87
f 194/37/86 196/38/88 195/21/88
f 196/38/88 198/39/89 195/21/88
f 198/39/89 200/40/90 197/26/89
f 200/40/90 202/41/91 199/29/90
f 202/41/91 204/42/92 203/28/92
f 204/42/92 206/43/93 203/28/92
f 206/43/93 208/44/94 207/18/94
f 208/44/94 210/45/95 209/20/95
f 210/45/95 212/46/96 209/20/95
f 212/46/96 214/47/97 211/19/96
f 214/47/97 216/48/98 213/23/97
f 216/48/98 218/49/99 215/24/100
f 218/49/99 220/50/101 217/25/99
f 220/50/101 222/51/102 219/22/101
f 222/51/102 224/52/103 221/17/102
f 224/52/103 226/53/104 223/16/105
f 226/53/104 228/54/106 225/14/104
f 228/54/106 230/55/107 229/11/107
f 230/55/107 232/56/108 231/9/108
f 232/56/108 234/57/109 233/1/110
f 234/57/109 236/58/111 233/1/110
f 236/58/111 238/59/112 235/3/111
f 238/59/112 240/60/113 237/4/112
f 240/60/113 182/31/78 239/5/113
f 64/32/4 63/6/6 61/2/3
f 66/33/5 65/7/8 63/6/6
f 68/34/7 67/8/114 65/7/8
f 67/8/114 68/34/7 69/10/9
f 69/10/9 70/35/9 71/13/10
f 74/37/11 73/15/11 71/13/10
f 76/38/12 75/21/115 73/15/11
f 75/21/115 76/38/12 77/26/13
f 77/26/13 78/39/13 79/29/14
f 79/29/14 80/40/14 81/30/16
f 84/42/17 83/28/17 81/30/16
f 83/28/17 84/42/17 85/27/18
f 88/44/19 87/18/19 85/27/18
f 90/45/20 89/20/116 87/18/19
f 89/20/116 90/45/20 91/19/21
f 91/19/21 92/46/21 93/23/22
f 93/23/22 94/47/22 95/24/24
f 95/24/24 96/48/23 97/25/25
f 97/25/25 98/49/25 99/22/27
f 99/22/27 100/50/26 101/17/29
f 101/17/29 102/51/28 103/16/30
f 103/16/30 104/52/30 105/14/32
f 105/14/32 106/53/31 107/12/34
f 110/55/35 109/11/37 107/12/34
f 112/56/36 111/9/36 109/11/37
f 114/57/38 113/1/38 111/9/36
f 113/1/38 114/57/38 115/3/40
f 118/59/41 117/4/43 115/3/40
f 120/60/42 119/5/42 117/4/43
f 119/5/42 120/60/42 61/2/3
f 124/32/45 123/6/45 121/2/44
f 126/33/46 125/7/46 123/6/45
f 128/34/47 127/8/47 125/7/46
f 130/35/48 129/10/50 127/8/47
f 132/36/49 131/13/49 129/10/50
f 134/37/51 133/15/51 131/13/49
f 136/38/52 135/21/52 133/15/51
f 138/39/53 137/26/55 135/21/52
f 140/40/54 139/29/54 137/26/55
f 142/41/56 141/30/56 139/29/54
f 144/42/57 143/28/57 141/30/56
f 146/43/58 145/27/58 143/28/57
f 148/44/59 147/18/59 145/27/58
f 150/45/60 149/20/60 147/18/59
f 152/46/61 151/19/61 149/20/60
f 154/47/62 153/23/64 151/19/61
f 156/48/63 155/24/63 153/23/64
f 158/49/65 157/25/65 155/24/63
f 160/50/66 159/22/66 157/25/65
f 162/51/67 161/17/67 159/22/66
f 164/52/68 163/16/68 161/17/67
f 166/53/69 165/14/71 163/16/68
f 168/54/70 167/12/70 165/14/71
f 170/55/72 169/11/74 167/12/70
f 172/56/73 171/9/73 169/11/74
f 174/57/75 173/1/75 171/9/73
f 176/58/76 175/3/76 173/1/75
f 178/59/77 177/4/77 175/3/76
f 180/60/44 179/5/44 177/4/77
f 122/31/44 121/2/44 179/5/44
f 181/2/78 182/31/78 183/6/80
f 183/6/80 184/32/79 185/7/82
f 185/7/82 186/33/81 187/8/83
f 190/35/84 189/10/84 187/8/83
f 192/36/85 191/13/85 189/10/84
f 191/13/85 192/36/85 193/15/87
f 193/15/87 194/37/86 195/21/88
f 198/39/89 197/26/89 195/21/88
f 200/40/90 199/29/90 197/26/89
f 202/41/91 201/30/91 199/29/90
f 201/30/91 202/41/91 203/28/92
f 206/43/93 205/27/117 203/28/92
f 205/27/117 206/43/93 207/18/94
f 207/18/94 208/44/94 209/20/95
f 212/46/96 211/19/96 209/20/95
f 214/47/97 213/23/97 211/19/96
f 216/48/98 215/24/100 213/23/97
f 218/49/99 217/25/99 215/24/100
f 220/50/101 219/22/101 217/25/99
f 222/51/102 221/17/102 219/22/101
f 224/52/103 223/16/105 221/17/102
f 226/53/104 225/14/104 223/16/105
f 228/54/106 227/12/118 225/14/104
f 227/12/118 228/54/106 229/11/107
f 229/11/107 230/55/107 231/9/108
f 231/9/108 232/56/108 233/1/110
f 236/58/111 235/3/111 233/1/110
f 238/59/112 237/4/112 235/3/111
f 240/60/113 239/5/113 237/4/112
f 182/31/78 181/2/78 239/5/113
