# Blender v2.69 (sub 0) OBJ File: 'FancyCube.blend'
# www.blender.org
mtllib FancyCube.mtl
o FancyCube_Cube
v 0.500000 -0.500000 -0.500000
v 0.500000 -0.500000 0.500000
v -0.500000 -0.500000 0.500000
v -0.500000 -0.500000 -0.500000
v 0.500000 0.500000 -0.499999
v 0.499999 0.500000 0.500000
v -0.500000 0.500000 0.500000
v -0.500000 0.500000 -0.500000
v 0.500000 -0.500000 -0.333333
v 0.500000 -0.500000 0.333333
v -0.500000 -0.500000 0.333333
v -0.500000 -0.500000 -0.333334
v 0.500000 0.500000 -0.333333
v 0.500000 0.500000 0.333334
v -0.500000 0.500000 0.333333
v -0.500000 0.500000 -0.333333
v 0.333333 -0.500000 -0.500000
v -0.333333 -0.500000 -0.500000
v 0.333333 -0.500000 0.500000
v -0.333333 -0.500000 0.500000
v 0.333333 0.500000 -0.500000
v -0.333333 0.500000 -0.500000
v 0.333333 0.500000 0.500000
v -0.333334 0.500000 0.500000
v 0.308215 -0.462323 -0.308215
v -0.308215 -0.462323 -0.308215
v 0.308215 -0.462323 0.308215
v -0.308215 -0.462323 0.308215
v -0.308215 0.462323 -0.308215
v 0.308215 0.462323 -0.308215
v -0.308215 0.462323 0.308215
v 0.308215 0.462323 0.308216
v 0.500000 -0.333333 -0.500000
v 0.500000 0.333333 -0.500000
v 0.500000 -0.333333 0.500000
v 0.500000 0.333333 0.500000
v -0.500000 -0.333333 0.500000
v -0.500000 0.333333 0.500000
v -0.500000 -0.333333 -0.500000
v -0.500000 0.333333 -0.500000
v 0.462323 0.308215 -0.308215
v 0.462323 -0.308215 -0.308215
v 0.462323 0.308215 0.308216
v 0.462323 -0.308215 0.308215
v -0.462323 0.308215 0.308215
v -0.462323 -0.308215 0.308215
v -0.462323 0.308215 -0.308215
v -0.462323 -0.308215 -0.308216
v 0.308215 0.308215 0.462323
v 0.308215 -0.308215 0.462323
v -0.308216 0.308215 0.462323
v -0.308215 -0.308215 0.462323
v 0.308215 -0.308215 -0.462323
v 0.308215 0.308215 -0.462323
v -0.308215 -0.308215 -0.462323
v -0.308215 0.308215 -0.462323
vt 0.345892 0.345892
vt 0.333333 0.250000
vt 0.250000 0.250000
vt 0.250000 0.333334
vt 0.345892 0.654108
vt 0.333333 0.750000
vt 0.250000 0.750000
vt 0.654108 0.654108
vt 0.666667 0.750000
vt 0.750000 0.750000
vt 0.333334 0.250000
vt 0.333334 0.750000
vt 0.250000 0.666667
vt 0.750000 0.666667
vt 0.654107 0.654108
vt 0.666666 0.750000
vt 0.750000 0.333333
vt 0.750000 0.250000
vt 0.654108 0.345892
vt 0.666667 0.250000
vt 0.654108 0.654107
vt 0.750000 0.666666
vt 0.250000 0.333333
vt 0.666666 0.250000
vn 0.000000 -0.981244 -0.192769
vn 0.192770 0.981244 0.000000
vn 0.981244 -0.192769 0.000001
vn -0.000001 -0.192769 0.981244
vn -0.981244 -0.192770 -0.000001
vn 0.000000 0.192770 -0.981244
vn 0.000000 -0.981244 0.192770
vn 0.192770 -0.981244 0.000000
vn -0.000000 0.981244 0.192770
vn 0.981244 -0.000000 0.192770
vn 0.981244 -0.192769 0.000000
vn -0.981244 -0.000001 -0.192769
vn -0.981244 -0.192770 -0.000000
vn -0.192769 -0.981244 0.000000
vn -0.192769 0.981244 0.000000
vn 0.000000 0.981244 -0.192769
vn -0.192770 -0.000001 0.981244
vn -0.000000 -0.192769 0.981244
vn -0.192769 0.000001 -0.981244
vn -0.192770 -0.981244 0.000000
vn 0.000000 -1.000000 0.000000
vn -0.000000 0.981244 0.192769
vn -0.192770 0.981244 -0.000000
vn 0.000000 1.000000 -0.000000
vn 0.981244 0.192770 -0.000000
vn 0.981244 0.000000 -0.192769
vn -0.000000 0.192769 0.981244
vn 0.192769 0.000000 0.981244
vn -0.981244 0.192768 -0.000000
vn -0.981244 -0.000000 0.192769
vn 0.000000 -0.192769 -0.981244
vn 0.192770 0.000000 -0.981244
vn 0.981244 0.192769 0.000000
vn 1.000000 0.000000 0.000000
vn -0.981244 -0.000001 -0.192770
vn -0.981244 0.000000 -0.192770
vn -0.981244 0.192769 -0.000000
vn -1.000000 0.000000 -0.000000
vn -0.192770 -0.000000 0.981244
vn 0.000000 -0.000000 1.000000
vn -0.192768 0.000000 -0.981244
vn 0.000000 0.000000 -1.000000
vn 0.000000 0.981244 -0.192770
vn 0.192769 -0.981244 0.000000
vn 0.192769 0.981244 0.000000
vn -0.981244 -0.192769 -0.000000
vn 0.000000 -0.981244 -0.192770
vn -0.000000 -0.981244 0.192769
vn 0.981244 0.000001 -0.192769
vn -0.981244 0.192770 -0.000001
vn -0.192771 -0.000000 0.981244
vn -0.192770 0.000000 -0.981244
usemtl Material
s off
f 28/1/1 20/2/1 3/3/1
f 31/1/2 15/4/2 7/3/2
f 43/5/3 14/6/3 6/7/3
f 51/5/4 24/6/4 7/7/4
f 47/8/5 16/9/5 8/10/5
f 55/1/6 18/11/6 4/3/6
f 18/12/7 26/5/7 4/7/7
f 26/5/8 28/1/8 12/13/8
f 22/12/9 8/7/9 29/5/9
f 29/5/2 16/13/2 31/1/2
f 34/14/10 5/10/10 41/15/10
f 41/15/11 13/16/11 43/5/11
f 38/13/12 7/7/12 45/5/12
f 45/5/13 15/12/13 47/8/13
f 10/17/14 2/18/14 27/19/14
f 27/19/1 19/20/1 28/1/1
f 14/17/15 32/19/15 6/18/15
f 32/19/16 31/1/16 24/2/16
f 36/14/17 6/10/17 49/15/17
f 49/15/18 23/16/18 24/6/18
f 33/17/19 1/18/19 53/19/19
f 53/19/6 17/20/6 55/1/6
f 1/10/14 9/14/14 25/8/14
f 17/9/7 25/8/7 18/12/7
f 9/14/20 10/17/20 25/8/20
f 25/8/21 27/19/21 26/5/21
f 5/10/22 21/9/22 30/21/22
f 21/9/9 22/12/9 29/5/9
f 13/22/23 30/21/23 14/17/23
f 30/21/24 29/5/24 32/19/24
f 10/2/25 44/1/25 2/3/25
f 44/1/26 43/5/26 35/23/26
f 20/2/27 52/1/27 3/3/27
f 52/1/28 51/5/28 37/23/28
f 12/20/29 48/19/29 4/18/29
f 48/19/30 47/8/30 39/17/30
f 22/12/31 56/5/31 8/7/31
f 56/5/32 55/1/32 40/13/32
f 1/18/10 33/17/10 42/19/10
f 33/17/10 34/14/10 42/19/10
f 9/20/33 42/19/33 10/2/33
f 42/19/34 41/15/34 44/1/34
f 3/3/35 37/23/35 46/1/35
f 37/23/36 38/13/36 46/1/36
f 11/11/37 46/1/37 12/20/37
f 46/1/38 45/5/38 48/19/38
f 2/18/17 35/17/17 50/19/17
f 35/17/39 36/14/39 50/19/39
f 19/20/27 50/19/27 20/2/27
f 50/19/40 49/15/40 52/1/40
f 5/10/19 34/14/19 54/8/19
f 34/14/41 33/17/41 54/8/41
f 21/9/31 54/8/31 22/12/31
f 54/8/42 53/19/42 56/5/42
f 11/4/8 28/1/8 3/3/8
f 24/2/43 31/1/43 7/3/43
f 36/13/26 43/5/26 6/7/26
f 38/13/28 51/5/28 7/7/28
f 40/14/30 47/8/30 8/10/30
f 39/23/32 55/1/32 4/3/32
f 26/5/44 12/13/44 4/7/44
f 28/1/44 11/4/44 12/13/44
f 8/7/45 16/13/45 29/5/45
f 16/13/2 15/4/2 31/1/2
f 5/10/3 13/16/3 41/15/3
f 13/16/11 14/6/11 43/5/11
f 7/7/46 15/12/46 45/5/46
f 15/12/46 16/9/46 47/8/46
f 2/18/47 19/20/47 27/19/47
f 19/20/47 20/2/47 28/1/47
f 32/19/43 23/24/43 6/18/43
f 23/24/43 32/19/43 24/2/43
f 6/10/4 23/16/4 49/15/4
f 51/5/18 49/15/18 24/6/18
f 1/18/6 17/20/6 53/19/6
f 17/20/6 18/11/6 55/1/6
f 17/9/7 1/10/7 25/8/7
f 25/8/48 26/5/48 18/12/48
f 10/17/20 27/19/20 25/8/20
f 27/19/21 28/1/21 26/5/21
f 13/22/23 5/10/23 30/21/23
f 30/21/22 21/9/22 29/5/22
f 30/21/15 32/19/15 14/17/15
f 29/5/24 31/1/24 32/19/24
f 44/1/49 35/23/49 2/3/49
f 43/5/26 36/13/26 35/23/26
f 52/1/28 37/23/28 3/3/28
f 51/5/28 38/13/28 37/23/28
f 48/19/30 39/17/30 4/18/30
f 47/8/30 40/14/30 39/17/30
f 56/5/32 40/13/32 8/7/32
f 55/1/32 39/23/32 40/13/32
f 9/20/33 1/18/33 42/19/33
f 34/14/10 41/15/10 42/19/10
f 42/19/33 44/1/33 10/2/33
f 41/15/34 43/5/34 44/1/34
f 11/11/50 3/3/50 46/1/50
f 38/13/36 45/5/36 46/1/36
f 46/1/37 48/19/37 12/20/37
f 45/5/38 47/8/38 48/19/38
f 19/20/27 2/18/27 50/19/27
f 36/14/51 49/15/51 50/19/51
f 50/19/27 52/1/27 20/2/27
f 49/15/40 51/5/40 52/1/40
f 21/9/31 5/10/31 54/8/31
f 33/17/52 53/19/52 54/8/52
f 54/8/31 56/5/31 22/12/31
f 53/19/42 55/1/42 56/5/42
